<svg width="170" height="101" viewBox="0 0 170 101" fill="none" xmlns="http://www.w3.org/2000/svg">
<path d="M161.89 28.6124C149.41 27.2175 136.79 27.2852 124.286 28.7278C118.035 29.4492 111.83 30.5536 105.72 31.9799C99.9203 33.3121 94.1547 34.9178 88.6158 37.0512C83.4339 39.0291 78.4325 41.596 74.1562 45.2399C70.2231 48.6189 67.2063 52.8844 65.5224 57.9291C63.9564 62.6257 63.8088 67.9243 65.7765 72.5152C67.6846 77.058 71.4556 80.5912 75.6658 82.9026C80.6186 85.5663 86.115 86.5507 91.6084 86.6462C97.6446 86.7853 103.784 86.0224 109.677 85.0122C115.207 84.1027 120.814 82.5166 125.315 78.9558C129.084 75.9863 131.995 71.734 132.395 66.7376C133.261 56.4032 123.474 49.0045 115.466 45.1085C110.488 42.6703 105.174 40.9962 99.8354 39.5476C94.2778 38.0706 88.6552 36.9352 83.0204 36.1347C71.5922 34.5536 60.1019 34.2029 48.5941 34.577C36.9806 34.9642 25.4486 36.0082 13.9438 37.2712C11.1321 37.565 8.26745 37.8654 5.46253 38.214C3.76899 38.4244 3.42889 35.6877 5.12244 35.4772C17.1564 34.1485 29.1375 32.8263 41.2002 32.161C53.2099 31.5022 65.2945 31.4456 77.2709 32.6807C89.0817 33.8808 100.844 36.4209 112.01 40.647C116.973 42.5313 121.813 45.1535 125.955 48.6406C129.857 51.9351 133.234 56.1843 134.515 61.3052C135.803 66.4809 134.544 71.9175 131.58 76.1764C128.386 80.7419 123.558 83.843 118.402 85.5954C112.426 87.6719 106.009 88.3582 99.7365 88.9153C93.5172 89.4659 87.078 89.5436 80.9572 87.8587C75.9492 86.4801 71.2218 83.8995 67.5158 80.0247C63.8099 76.15 61.6085 70.9767 61.5241 65.5403C61.4329 60.0492 63.1886 54.7176 66.0656 50.1915C69.1134 45.3108 73.5417 41.5924 78.3964 38.7103C83.4559 35.7472 88.9487 33.6751 94.5419 31.9795C100.757 30.0956 107.072 28.5883 113.481 27.4028C126.359 25.0799 139.48 24.283 152.573 24.9903C155.763 25.1496 158.968 25.4184 162.132 25.8033C163.993 26.0723 163.638 28.8398 161.89 28.6124Z" fill="#9AC731"/>
<path d="M21.945 19.4905C19.1966 22.8889 16.375 26.1298 13.4406 29.329C11.9701 30.9013 10.4995 32.4735 8.96917 33.9976C8.20402 34.7597 7.4457 35.5765 6.62762 36.3451C6.09988 36.8553 5.42018 37.44 5.24399 38.1844C4.97107 37.7181 4.69134 37.1971 4.47136 36.7242C12.2033 39.2649 19.8891 41.867 27.621 44.4077C28.2969 44.6572 28.5713 45.5679 28.3286 46.2095C28.0466 46.9671 27.2663 47.1752 26.5904 46.9257C18.8585 44.385 11.1727 41.7829 3.44076 39.2422C2.88432 39.0891 2.51769 38.3009 2.66816 37.782C3.04477 35.6231 5.07177 34.2041 6.50302 32.7478C8.03332 31.2237 9.55001 29.5902 11.0206 28.0179C14.1001 24.6895 17.0072 21.2713 19.8546 17.8049C20.9751 16.4429 23.0655 18.1284 21.945 19.4905Z" fill="#9AC731"/>
</svg>
