<svg width="94" height="94" viewBox="0 0 94 94" fill="none" xmlns="http://www.w3.org/2000/svg">
<rect x="0.471069" y="0.676025" width="92.9455" height="92.9455" rx="25.3488" fill="#1A8832"/>
<path opacity="0.6" d="M63.8195 44.032V47.623H26.7587V44.032C26.7587 38.5867 31.1947 34.1506 36.64 34.1506H53.9382C59.3835 34.1506 63.8195 38.5867 63.8195 44.032Z" fill="white"/>
<path opacity="0.4" d="M63.8195 47.6182V61.2079C63.8195 66.6532 59.3835 71.0892 53.9382 71.0892H36.64C31.1947 71.0892 26.7587 66.6532 26.7587 61.2079V47.6182H63.8195Z" fill="white"/>
<path d="M34.9736 31.4725C34.0112 31.4725 33.2132 30.6744 33.2132 29.7121V25.6047C33.2132 24.6424 34.0112 23.8444 34.9736 23.8444C35.9359 23.8444 36.7339 24.6424 36.7339 25.6047V29.7121C36.7339 30.6979 35.9359 31.4725 34.9736 31.4725ZM44.362 31.4725C43.3997 31.4725 42.6017 30.6744 42.6017 29.7121V25.6047C42.6017 24.6424 43.3997 23.8444 44.362 23.8444C45.3243 23.8444 46.1223 24.6424 46.1223 25.6047V29.7121C46.1223 30.6979 45.3243 31.4725 44.362 31.4725ZM53.7504 31.4725C52.7881 31.4725 51.9901 30.6744 51.9901 29.7121V25.6047C51.9901 24.6424 52.7881 23.8444 53.7504 23.8444C54.7127 23.8444 55.5108 24.6424 55.5108 25.6047V29.7121C55.5108 30.6979 54.7127 31.4725 53.7504 31.4725ZM72.8793 53.0682C72.8793 58.1145 68.7954 62.1984 63.7491 62.1984V43.9145C68.7719 43.9145 72.8793 48.0219 72.8793 53.0682Z" fill="white"/>
</svg>
