<svg width="94" height="94" viewBox="0 0 94 94" fill="none" xmlns="http://www.w3.org/2000/svg">
<rect x="0.471069" y="0.37854" width="92.9455" height="92.9455" rx="25.3488" fill="#40B5AE"/>
<path opacity="0.4" d="M31.2182 46.3818C31.2182 42.3356 32.8255 38.4551 35.6866 35.594C38.5477 32.733 42.4282 31.1256 46.4744 31.1256C50.5206 31.1256 54.4011 32.733 57.2622 35.594C60.1232 38.4551 61.7306 42.3356 61.7306 46.3818C61.7306 51.2638 59.4304 55.6294 55.8628 58.4225H55.8393C53.2575 60.441 50.0185 61.638 46.4744 61.638C42.9772 61.638 39.7617 60.4645 37.1798 58.4694H37.1564C35.3057 57.045 33.8076 55.214 32.7779 53.118C31.7482 51.0219 31.2145 48.7171 31.2182 46.3818Z" fill="white"/>
<path d="M37.1556 58.4671H37.1791C39.7609 60.4622 42.9764 61.6357 46.4736 61.6357C50.0178 61.6357 53.2568 60.4387 55.8386 58.4202H55.8621L54.665 64.2175C53.5149 68.677 50.9331 69.8506 47.7645 69.8506H45.2062C42.0376 69.8506 39.4323 68.677 38.3057 64.1941L37.1556 58.4671ZM37.1556 34.2942H37.1791C39.7609 32.2992 42.9764 31.1256 46.4736 31.1256C50.0178 31.1256 53.2568 32.3227 55.8386 34.3412H55.8621L54.665 28.5438C53.5149 24.0843 50.9331 22.9108 47.7645 22.9108H45.2062C42.0376 22.9108 39.4323 24.0843 38.3057 28.5673L37.1556 34.2942ZM49.7596 52.4843C49.3136 52.4843 48.8677 52.32 48.5156 51.968L45.2297 48.682C44.8994 48.3522 44.7137 47.9048 44.7133 47.438V40.8896C44.7133 39.9273 45.5113 39.1293 46.4736 39.1293C47.4359 39.1293 48.234 39.9273 48.234 40.8896V46.7104L51.0035 49.48C51.6842 50.1607 51.6842 51.2873 51.0035 51.968C50.6515 52.32 50.2055 52.4843 49.7596 52.4843Z" fill="white"/>
</svg>
