<svg width="94" height="94" viewBox="0 0 94 94" fill="none" xmlns="http://www.w3.org/2000/svg">
<rect x="0.229843" y="0.37854" width="92.9455" height="92.9455" rx="25.3488" fill="#E76127"/>
<path opacity="0.4" d="M56.8195 26.9216H36.5843C30.6903 26.9216 25.9178 31.7179 25.9178 37.5881V60.0425C25.9178 65.9126 30.7142 70.7089 36.5843 70.7089H56.7956C62.6896 70.7089 67.462 65.9126 67.462 60.0425V37.5881C67.4859 31.6941 62.6896 26.9216 56.8195 26.9216Z" fill="white"/>
<path d="M52.3096 22.9893H41.0943C38.6126 22.9893 36.5844 24.9937 36.5844 27.4754V29.7184C36.5844 32.2001 38.5888 34.2045 41.0705 34.2045H52.3096C54.7913 34.2045 56.7957 32.2001 56.7957 29.7184V27.4754C56.8195 24.9937 54.7913 22.9893 52.3096 22.9893ZM43.8623 58.6633C43.409 58.6633 42.9556 58.4963 42.5976 58.1384L39.0183 54.559C38.6855 54.2222 38.4988 53.7678 38.4988 53.2943C38.4988 52.8208 38.6855 52.3664 39.0183 52.0296C39.7103 51.3376 40.8557 51.3376 41.5477 52.0296L43.8623 54.3443L52.1425 46.0641C52.8345 45.3721 53.9799 45.3721 54.6719 46.0641C55.3639 46.7561 55.3639 47.9015 54.6719 48.5935L45.127 58.1384C44.793 58.4963 44.3157 58.6633 43.8623 58.6633Z" fill="white"/>
</svg>
