<svg width="94" height="94" viewBox="0 0 94 94" fill="none" xmlns="http://www.w3.org/2000/svg">
<rect x="0.471069" y="0.527344" width="92.9455" height="92.9455" rx="25.3488" fill="#C9203E"/>
<path opacity="0.4" d="M54.6427 23.9985H35.9832C27.8622 23.9985 23.0271 28.8336 23.0271 36.9546V55.6141C23.0271 63.7351 27.8856 68.5701 35.9832 68.5701H54.6427C62.7637 68.5701 67.5987 63.7351 67.5987 55.6141V36.9546C67.5987 28.8336 62.7402 23.9985 54.6427 23.9985Z" fill="white"/>
<path d="M69.8516 63.519L66.0258 64.8099C64.9696 65.1619 64.1246 65.9834 63.7726 67.0631L62.4817 70.8889C61.3785 74.1983 56.7312 74.1279 55.6985 70.8185L51.3564 56.8532C50.5114 54.0836 53.0698 51.5018 55.8159 52.3702L69.8046 56.7123C73.0906 57.7451 73.1375 62.4158 69.8516 63.519Z" fill="white"/>
</svg>
