<svg width="94" height="94" viewBox="0 0 94 94" fill="none" xmlns="http://www.w3.org/2000/svg">
<rect x="0.229843" y="0.676025" width="92.9455" height="92.9455" rx="25.3488" fill="#2267CE"/>
<path d="M68.3962 33.2921C66.3679 31.049 62.9795 29.9275 58.0639 29.9275H57.4912V29.8321C57.4912 25.8232 57.4912 20.8599 48.519 20.8599H44.8919C35.9197 20.8599 35.9197 25.8471 35.9197 29.8321V29.9514H35.347C30.4075 29.9514 27.0429 31.0729 25.0146 33.316C22.6523 35.9408 22.7239 39.4724 22.9625 41.8825L22.9864 42.0495L23.225 44.5551C23.2488 44.5789 23.2966 44.6267 23.3443 44.6505C24.1317 45.1755 24.9431 45.7005 25.8021 46.1777C26.1362 46.3925 26.4941 46.5834 26.852 46.7743C30.9325 49.0173 35.4186 50.5207 39.9763 51.2604C40.191 53.5034 41.1694 56.1283 46.3952 56.1283C51.6211 56.1283 52.6471 53.5273 52.8142 51.2127C57.6821 50.4252 62.3829 48.731 66.6304 46.2493C66.7736 46.1777 66.869 46.1061 66.9884 46.0345C68.086 45.4141 69.1121 44.746 70.1143 44.0063C70.1652 43.9794 70.2067 43.9378 70.2336 43.8869L70.3291 43.0279L70.4484 41.9064C70.4722 41.7632 70.4723 41.6439 70.4961 41.4769C70.687 39.0668 70.6393 35.7738 68.3962 33.2921ZM49.3064 49.6377C49.3064 52.1671 49.3064 52.5489 46.3714 52.5489C43.4363 52.5489 43.4363 52.0956 43.4363 49.6616V46.655H49.3064V49.6377ZM39.332 29.9275V29.8321C39.332 25.7755 39.332 24.2722 44.8919 24.2722H48.519C54.0789 24.2722 54.0789 25.7994 54.0789 29.8321V29.9514H39.332V29.9275Z" fill="white"/>
<path opacity="0.4" d="M66.9855 45.9822L66.6276 46.197C62.3615 48.6761 57.6798 50.358 52.8113 51.1603C52.6204 53.4511 51.6182 56.0759 46.3924 56.0759C41.1665 56.0759 40.1643 53.4749 39.9734 51.208C35.4157 50.4922 30.9296 48.9888 26.8492 46.7219C26.4912 46.531 26.1333 46.3401 25.7992 46.1254C24.9402 45.6481 24.1289 45.1232 23.3414 44.5982C23.2937 44.5743 23.246 44.5266 23.2221 44.5027L24.6777 60.0371C25.1788 64.7857 27.1355 69.6774 37.6349 69.6774H55.818C66.3174 69.6774 68.2741 64.7857 68.7752 60.0132L70.2785 43.8346C70.2516 43.8854 70.21 43.927 70.1592 43.9539C69.1331 44.6936 68.0832 45.3856 66.9855 45.9822Z" fill="white"/>
</svg>
