<svg width="94" height="94" viewBox="0 0 94 94" fill="none" xmlns="http://www.w3.org/2000/svg">
<rect x="0.229843" y="0.527344" width="92.9455" height="92.9455" rx="25.3488" fill="#4C18BB"/>
<path d="M61.0206 49.386C58.7776 49.386 56.7015 50.1734 55.055 51.4859C53.935 52.376 53.031 53.5083 52.4111 54.7977C51.7912 56.0871 51.4714 57.5002 51.4757 58.9309C51.4757 60.7206 51.9768 62.4148 52.8597 63.8465C53.7009 65.2603 54.8958 66.4307 56.3268 67.2424C57.7578 68.0541 59.3755 68.4792 61.0206 68.4758C63.4307 68.4758 65.626 67.5929 67.2964 66.0896C68.0361 65.4692 68.6804 64.7056 69.1815 63.8465C70.0644 62.4148 70.5655 60.7206 70.5655 58.9309C70.5655 53.6573 66.2942 49.386 61.0206 49.386ZM65.9601 57.9048L60.8774 62.6057C60.5434 62.9159 60.09 63.0829 59.6605 63.0829C59.2071 63.0829 58.7537 62.9159 58.3958 62.558L56.0334 60.1956C55.7006 59.8588 55.5139 59.4044 55.5139 58.9309C55.5139 58.4574 55.7006 58.003 56.0334 57.6662C56.7254 56.9742 57.8708 56.9742 58.5628 57.6662L59.7082 58.8116L63.5261 55.28C64.242 54.6118 65.3874 54.6595 66.0556 55.3754C66.7237 56.0913 66.676 57.2128 65.9601 57.9048Z" fill="white"/>
<path opacity="0.4" d="M68.3934 69.6692C68.3934 70.3373 67.8684 70.8623 67.2003 70.8623H26.2049C25.5368 70.8623 25.0118 70.3373 25.0118 69.6692C25.0118 59.7902 34.7476 51.7725 46.7026 51.7725C49.1604 51.7725 51.5466 52.1065 53.742 52.7508C52.3341 54.4212 51.475 56.5926 51.475 58.9311C51.475 60.7208 51.9762 62.415 52.8591 63.8468C53.3363 64.6581 53.9567 65.3978 54.6726 66.0182C56.3429 67.5454 58.5621 68.476 61.0199 68.476C63.6925 68.476 66.1026 67.3784 67.8207 65.6126C68.2025 66.9011 68.3934 68.2613 68.3934 69.6692Z" fill="white"/>
<path d="M46.702 47.0002C49.8663 47.0002 52.9011 45.7432 55.1386 43.5057C57.3761 41.2681 58.6331 38.2334 58.6331 35.0691C58.6331 31.9047 57.3761 28.87 55.1386 26.6325C52.9011 24.395 49.8663 23.1379 46.702 23.1379C43.5377 23.1379 40.5029 24.395 38.2654 26.6325C36.0279 28.87 34.7709 31.9047 34.7709 35.0691C34.7709 38.2334 36.0279 41.2681 38.2654 43.5057C40.5029 45.7432 43.5377 47.0002 46.702 47.0002Z" fill="white"/>
</svg>
