<svg width="99" height="99" viewBox="0 0 99 99" fill="none" xmlns="http://www.w3.org/2000/svg">
<rect width="99" height="99" rx="27" fill="#9C29B9"/>
<path opacity="0.4" d="M73.1242 45.0748C72.1492 43.6748 70.4242 42.8748 68.4492 42.8748H58.1992C57.5242 42.8748 56.8992 42.5998 56.4742 42.0998C56.0242 41.5998 55.8492 40.8998 55.9492 40.1748L57.2242 31.9748C57.7742 29.5248 56.1492 26.7748 53.6992 25.9498C51.4242 25.0998 48.7492 26.2498 47.6742 27.8748L37.1242 43.5498L36.8242 44.0498V66.1498L37.1992 66.5248L45.1242 72.6498C46.1742 73.6998 48.5492 74.2748 50.2242 74.2748H59.9742C63.3242 74.2748 66.6992 71.7498 67.4492 68.6748L73.5992 49.9498C74.2492 48.1748 74.0742 46.4498 73.1242 45.0748Z" fill="white"/>
<path d="M32.025 35.9475H29.45C25.575 35.9475 24 37.4475 24 41.1475V66.2975C24 69.9975 25.575 71.4975 29.45 71.4975H32.025C35.9 71.4975 37.475 69.9975 37.475 66.2975V41.1475C37.475 37.4475 35.9 35.9475 32.025 35.9475Z" fill="white"/>
</svg>
