<svg width="99" height="99" viewBox="0 0 99 99" fill="none" xmlns="http://www.w3.org/2000/svg">
<path d="M49.5 0C76.8379 0 99 22.1619 99 49.5C99 76.8379 76.8379 99 49.5 99C22.1619 99 0 76.8379 0 49.5C0 22.1619 22.1619 0 49.5 0ZM65.4375 34.4999L43.3125 56.6245L33.5626 46.875C32.1128 45.4252 29.7622 45.4252 28.3124 46.875C26.8626 48.3249 26.8626 50.6751 28.3124 52.125L40.6875 64.5C42.1374 65.9498 44.4876 65.9498 45.9375 64.5L70.6875 39.75C72.1373 38.3003 72.1373 35.9497 70.6875 34.4999C69.2376 33.0501 66.8874 33.0501 65.4375 34.4999Z" fill="url(#paint0_linear_2695_19166)"/>
<defs>
<linearGradient id="paint0_linear_2695_19166" x1="97.8012" y1="-2.55962e-06" x2="-8.66908" y2="10.4199" gradientUnits="userSpaceOnUse">
<stop stop-color="#C0E654"/>
<stop offset="1" stop-color="#9AC731"/>
</linearGradient>
</defs>
</svg>
