<svg width="258" height="47" viewBox="0 0 258 47" fill="none" xmlns="http://www.w3.org/2000/svg">
<path d="M63.1398 23.2938C61.7839 23.2938 60.6048 23.0728 59.6026 22.6306C58.6004 22.1885 57.8193 21.5252 57.2592 20.6409C56.6992 19.7419 56.3896 18.6218 56.3307 17.2806C56.316 16.6468 56.3086 16.0131 56.3086 15.3793C56.3086 14.7456 56.316 14.1045 56.3307 13.456C56.3896 12.1295 56.6992 11.0168 57.2592 10.1177C57.834 9.20397 58.6225 8.51863 59.6247 8.06174C60.6269 7.60485 61.7986 7.37641 63.1398 7.37641C64.4663 7.37641 65.6306 7.60485 66.6328 8.06174C67.6497 8.51863 68.4456 9.20397 69.0204 10.1177C69.5952 11.0168 69.9047 12.1295 69.9489 13.456C69.9784 14.1045 69.9931 14.7456 69.9931 15.3793C69.9931 16.0131 69.9784 16.6468 69.9489 17.2806C69.89 18.6218 69.5805 19.7419 69.0204 20.6409C68.4604 21.5252 67.6792 22.1885 66.677 22.6306C65.6748 23.0728 64.4957 23.2938 63.1398 23.2938ZM63.1398 20.1103C63.9209 20.1103 64.5547 19.8745 65.0411 19.4029C65.5422 18.9313 65.8075 18.1796 65.8369 17.1479C65.8664 16.4994 65.8811 15.8878 65.8811 15.313C65.8811 14.7382 65.8664 14.1413 65.8369 13.5223C65.8075 12.8296 65.6748 12.2695 65.439 11.8421C65.2179 11.4 64.9084 11.0757 64.5105 10.8694C64.1125 10.6631 63.6557 10.5599 63.1398 10.5599C62.6387 10.5599 62.1892 10.6631 61.7913 10.8694C61.3933 11.0757 61.0764 11.4 60.8406 11.8421C60.6048 12.2695 60.4722 12.8296 60.4427 13.5223C60.428 14.1413 60.4206 14.7382 60.4206 15.313C60.4206 15.8878 60.428 16.4994 60.4427 17.1479C60.4869 18.1796 60.7522 18.9313 61.2386 19.4029C61.7249 19.8745 62.3587 20.1103 63.1398 20.1103ZM72.4452 23.0728C72.2831 23.0728 72.1504 23.0212 72.0472 22.918C71.9441 22.8148 71.8925 22.6822 71.8925 22.5201V8.15017C71.8925 7.98805 71.9441 7.85541 72.0472 7.75224C72.1504 7.64907 72.2831 7.59748 72.4452 7.59748H83.0347C83.1968 7.59748 83.3295 7.64907 83.4326 7.75224C83.5505 7.85541 83.6095 7.98805 83.6095 8.15017V10.3609C83.6095 10.523 83.5505 10.6631 83.4326 10.781C83.3295 10.8841 83.1968 10.9357 83.0347 10.9357H75.8497V13.5665H78.9448C80.7134 13.5665 82.1062 13.9866 83.1231 14.8266C84.1401 15.6667 84.6485 16.809 84.6485 18.2533C84.6485 18.9313 84.5233 19.565 84.2727 20.1546C84.0222 20.7294 83.6537 21.2378 83.1673 21.68C82.6957 22.1074 82.1062 22.4464 81.3987 22.6969C80.6913 22.9475 79.8733 23.0728 78.9448 23.0728H72.4452ZM75.8497 20.1988H78.5911C79.0185 20.1988 79.3722 20.1103 79.6522 19.9335C79.947 19.7419 80.1681 19.4987 80.3155 19.2039C80.4628 18.8944 80.5365 18.5702 80.5365 18.2312C80.5365 17.7154 80.367 17.2732 80.0281 16.9048C79.7038 16.5363 79.2248 16.3521 78.5911 16.3521H75.8497V20.1988ZM96.1273 23.0728C95.9652 23.0728 95.8326 23.0212 95.7294 22.918C95.6262 22.8148 95.5747 22.6822 95.5747 22.5201V11.1347H91.4627V13.1465C91.4627 14.9298 91.3742 16.4479 91.1974 17.7006C91.0352 18.9386 90.7331 19.9556 90.291 20.7515C89.8635 21.5326 89.2519 22.1074 88.456 22.4759C87.6749 22.8443 86.6653 23.0433 85.4273 23.0728C85.2799 23.0728 85.1473 23.0212 85.0294 22.918C84.9115 22.8001 84.8525 22.6601 84.8525 22.498V20.1767C84.8525 19.8524 85.0367 19.6682 85.4052 19.624C85.8179 19.5503 86.1642 19.3366 86.4443 18.9829C86.7243 18.6291 86.9527 18.1575 87.1296 17.568C87.3064 16.9637 87.4317 16.2489 87.5054 15.4235C87.5791 14.5835 87.616 13.6549 87.616 12.638V8.15017C87.616 7.98805 87.6675 7.85541 87.7707 7.75224C87.8886 7.64907 88.0286 7.59748 88.1907 7.59748H98.9792C99.1413 7.59748 99.274 7.64907 99.3772 7.75224C99.4803 7.85541 99.5319 7.98805 99.5319 8.15017V22.5201C99.5319 22.6822 99.4803 22.8148 99.3772 22.918C99.274 23.0212 99.1413 23.0728 98.9792 23.0728H96.1273ZM101.073 23.0728C100.955 23.0728 100.844 23.0285 100.741 22.9401C100.653 22.8369 100.608 22.7264 100.608 22.6085C100.608 22.5348 100.616 22.4685 100.631 22.4095L105.826 8.21649C105.87 8.05437 105.958 7.91436 106.091 7.79645C106.238 7.66381 106.437 7.59748 106.688 7.59748H109.96C110.21 7.59748 110.402 7.66381 110.535 7.79645C110.682 7.91436 110.778 8.05437 110.822 8.21649L115.995 22.4095C116.025 22.4685 116.039 22.5348 116.039 22.6085C116.039 22.7264 115.988 22.8369 115.885 22.9401C115.796 23.0285 115.686 23.0728 115.553 23.0728H112.834C112.613 23.0728 112.443 23.0212 112.325 22.918C112.222 22.8001 112.156 22.6969 112.126 22.6085L111.264 20.3535H105.362L104.521 22.6085C104.492 22.6969 104.426 22.8001 104.323 22.918C104.219 23.0212 104.042 23.0728 103.792 23.0728H101.073ZM106.268 17.17H110.38L108.302 11.3337L106.268 17.17ZM123.464 23.2938C122.064 23.2938 120.862 23.0654 119.86 22.6085C118.873 22.1516 118.099 21.481 117.539 20.5967C116.994 19.7124 116.691 18.6144 116.632 17.3027C116.618 16.6984 116.61 16.0499 116.61 15.3572C116.61 14.6645 116.618 14.0013 116.632 13.3675C116.691 12.0853 117.001 11.002 117.561 10.1177C118.121 9.2187 118.902 8.54074 119.904 8.08385C120.907 7.61222 122.093 7.37641 123.464 7.37641C124.436 7.37641 125.335 7.50169 126.161 7.75224C126.986 7.98805 127.708 8.34177 128.327 8.8134C128.946 9.27029 129.425 9.83034 129.764 10.4936C130.118 11.1421 130.302 11.879 130.317 12.7043C130.332 12.837 130.288 12.9475 130.184 13.0359C130.096 13.1244 129.985 13.1686 129.853 13.1686H126.868C126.677 13.1686 126.529 13.1317 126.426 13.058C126.323 12.9696 126.234 12.8149 126.161 12.5938C125.954 11.8127 125.615 11.2821 125.144 11.002C124.687 10.7073 124.12 10.5599 123.442 10.5599C122.631 10.5599 121.99 10.7883 121.518 11.2452C121.047 11.6874 120.789 12.4317 120.744 13.4781C120.7 14.6866 120.7 15.9247 120.744 17.1922C120.789 18.2386 121.047 18.9902 121.518 19.4471C121.99 19.8893 122.631 20.1103 123.442 20.1103C124.12 20.1103 124.694 19.963 125.166 19.6682C125.638 19.3734 125.969 18.8428 126.161 18.0765C126.22 17.8554 126.301 17.708 126.404 17.6343C126.522 17.5459 126.677 17.5017 126.868 17.5017H129.853C129.985 17.5017 130.096 17.5459 130.184 17.6343C130.288 17.7227 130.332 17.8333 130.317 17.9659C130.302 18.7913 130.118 19.5355 129.764 20.1988C129.425 20.8473 128.946 21.4073 128.327 21.8789C127.708 22.3358 126.986 22.6896 126.161 22.9401C125.335 23.1759 124.436 23.2938 123.464 23.2938ZM135.936 23.0728C135.773 23.0728 135.641 23.0212 135.538 22.918C135.434 22.8148 135.383 22.6822 135.383 22.5201V11.0684H131.448C131.286 11.0684 131.153 11.0168 131.05 10.9136C130.947 10.7957 130.895 10.6631 130.895 10.5157V8.15017C130.895 7.98805 130.947 7.85541 131.05 7.75224C131.153 7.64907 131.286 7.59748 131.448 7.59748H143.342C143.504 7.59748 143.636 7.64907 143.74 7.75224C143.843 7.85541 143.894 7.98805 143.894 8.15017V10.5157C143.894 10.6631 143.843 10.7957 143.74 10.9136C143.636 11.0168 143.504 11.0684 143.342 11.0684H139.406V22.5201C139.406 22.6822 139.355 22.8148 139.252 22.918C139.149 23.0212 139.016 23.0728 138.854 23.0728H135.936ZM145.793 23.0728C145.631 23.0728 145.498 23.0212 145.395 22.918C145.292 22.8148 145.24 22.6822 145.24 22.5201V8.15017C145.24 7.98805 145.292 7.85541 145.395 7.75224C145.498 7.64907 145.631 7.59748 145.793 7.59748H148.645C148.807 7.59748 148.94 7.64907 149.043 7.75224C149.146 7.85541 149.198 7.98805 149.198 8.15017V12.9033H151.541C153.427 12.9033 154.894 13.3233 155.94 14.1634C156.987 14.9888 157.51 16.2415 157.51 17.9217C157.51 18.9386 157.281 19.8377 156.825 20.6188C156.368 21.4 155.69 22.0042 154.791 22.4316C153.906 22.859 152.823 23.0728 151.541 23.0728H145.793ZM149.198 19.9998H151.452C152.086 19.9998 152.565 19.8082 152.889 19.425C153.228 19.0271 153.398 18.526 153.398 17.9217C153.398 17.2585 153.228 16.7647 152.889 16.4405C152.55 16.1163 152.071 15.9541 151.452 15.9541H149.198V19.9998Z" fill="#414141"/>
<path d="M168.942 23.2938C167.821 23.2938 166.856 23.1686 166.046 22.918C165.25 22.6674 164.594 22.3358 164.078 21.9232C163.562 21.5105 163.172 21.0536 162.906 20.5525C162.656 20.0367 162.501 19.5282 162.442 19.0271C162.427 18.8944 162.471 18.7839 162.575 18.6955C162.678 18.607 162.796 18.5628 162.928 18.5628H165.758C165.935 18.5628 166.068 18.5923 166.156 18.6512C166.259 18.7102 166.355 18.8134 166.443 18.9608C166.606 19.3145 166.878 19.6019 167.261 19.8229C167.659 20.0293 168.197 20.1325 168.875 20.1325C169.406 20.1325 169.863 20.0661 170.246 19.9335C170.629 19.8008 170.924 19.6092 171.13 19.3587C171.351 19.0934 171.462 18.7839 171.462 18.4302C171.462 17.8554 171.248 17.4206 170.821 17.1258C170.393 16.8311 169.789 16.6837 169.008 16.6837H167.394C167.232 16.6837 167.099 16.6321 166.996 16.5289C166.893 16.411 166.841 16.271 166.841 16.1089V14.3403C166.841 14.1782 166.893 14.0381 166.996 13.9202C167.099 13.8023 167.232 13.7434 167.394 13.7434H168.986C169.59 13.7434 170.084 13.6181 170.467 13.3675C170.85 13.1023 171.042 12.697 171.042 12.1516C171.042 11.8421 170.953 11.5695 170.777 11.3337C170.614 11.0831 170.371 10.8915 170.047 10.7589C169.737 10.6262 169.354 10.5599 168.897 10.5599C168.249 10.5599 167.726 10.6631 167.328 10.8694C166.945 11.0757 166.701 11.3705 166.598 11.7537C166.525 11.8863 166.443 11.9895 166.355 12.0632C166.267 12.1222 166.141 12.1516 165.979 12.1516H163.061C162.928 12.1516 162.81 12.1074 162.707 12.019C162.619 11.9158 162.582 11.7979 162.597 11.6653C162.641 11.1494 162.788 10.6336 163.039 10.1177C163.304 9.6019 163.68 9.14501 164.166 8.74708C164.667 8.3344 165.316 8.00279 166.112 7.75224C166.908 7.50169 167.866 7.37641 168.986 7.37641C170.253 7.37641 171.337 7.58275 172.236 7.99542C173.149 8.39336 173.857 8.92394 174.358 9.58716C174.859 10.2504 175.11 10.9799 175.11 11.7758C175.11 12.1443 175.058 12.5275 174.955 12.9254C174.852 13.3086 174.675 13.6771 174.424 14.0308C174.188 14.3698 173.835 14.6719 173.363 14.9372C173.923 15.2025 174.358 15.5341 174.667 15.932C174.992 16.33 175.22 16.7574 175.353 17.2143C175.5 17.6711 175.574 18.128 175.574 18.5849C175.574 19.5282 175.301 20.3535 174.756 21.061C174.225 21.7537 173.466 22.299 172.479 22.6969C171.491 23.0949 170.312 23.2938 168.942 23.2938ZM177.893 23.0728C177.731 23.0728 177.598 23.0212 177.495 22.918C177.392 22.8148 177.34 22.6822 177.34 22.5201V8.15017C177.34 7.98805 177.392 7.85541 177.495 7.75224C177.598 7.64907 177.731 7.59748 177.893 7.59748H180.745C180.907 7.59748 181.04 7.64907 181.143 7.75224C181.246 7.85541 181.297 7.98805 181.297 8.15017V13.4781H186.758V8.15017C186.758 7.98805 186.81 7.85541 186.913 7.75224C187.016 7.64907 187.149 7.59748 187.311 7.59748H190.163C190.325 7.59748 190.457 7.64907 190.561 7.75224C190.664 7.85541 190.715 7.98805 190.715 8.15017V22.5201C190.715 22.6822 190.664 22.8148 190.561 22.918C190.457 23.0212 190.325 23.0728 190.163 23.0728H187.311C187.149 23.0728 187.016 23.0212 186.913 22.918C186.81 22.8148 186.758 22.6822 186.758 22.5201V17.0153H181.297V22.5201C181.297 22.6822 181.246 22.8148 181.143 22.918C181.04 23.0212 180.907 23.0728 180.745 23.0728H177.893ZM192.265 23.0728C192.147 23.0728 192.037 23.0285 191.934 22.9401C191.845 22.8369 191.801 22.7264 191.801 22.6085C191.801 22.5348 191.808 22.4685 191.823 22.4095L197.019 8.21649C197.063 8.05437 197.151 7.91436 197.284 7.79645C197.431 7.66381 197.63 7.59748 197.881 7.59748H201.153C201.403 7.59748 201.595 7.66381 201.727 7.79645C201.875 7.91436 201.971 8.05437 202.015 8.21649L207.188 22.4095C207.217 22.4685 207.232 22.5348 207.232 22.6085C207.232 22.7264 207.181 22.8369 207.077 22.9401C206.989 23.0285 206.878 23.0728 206.746 23.0728H204.027C203.806 23.0728 203.636 23.0212 203.518 22.918C203.415 22.8001 203.349 22.6969 203.319 22.6085L202.457 20.3535H196.554L195.714 22.6085C195.685 22.6969 195.618 22.8001 195.515 22.918C195.412 23.0212 195.235 23.0728 194.985 23.0728H192.265ZM197.461 17.17H201.573L199.495 11.3337L197.461 17.17ZM208.864 23.0728C208.702 23.0728 208.569 23.0212 208.466 22.918C208.363 22.8148 208.311 22.6822 208.311 22.5201V8.15017C208.311 7.98805 208.363 7.85541 208.466 7.75224C208.569 7.64907 208.702 7.59748 208.864 7.59748H211.716C211.878 7.59748 212.011 7.64907 212.114 7.75224C212.217 7.85541 212.269 7.98805 212.269 8.15017V13.4781H217.729V8.15017C217.729 7.98805 217.781 7.85541 217.884 7.75224C217.987 7.64907 218.12 7.59748 218.282 7.59748H221.134C221.296 7.59748 221.429 7.64907 221.532 7.75224C221.635 7.85541 221.687 7.98805 221.687 8.15017V22.5201C221.687 22.6822 221.635 22.8148 221.532 22.918C221.429 23.0212 221.296 23.0728 221.134 23.0728H218.282C218.12 23.0728 217.987 23.0212 217.884 22.918C217.781 22.8148 217.729 22.6822 217.729 22.5201V17.0153H212.269V22.5201C212.269 22.6822 212.217 22.8148 212.114 22.918C212.011 23.0212 211.878 23.0728 211.716 23.0728H208.864ZM224.674 23.0728C224.512 23.0728 224.379 23.0212 224.276 22.918C224.173 22.8001 224.121 22.6674 224.121 22.5201V8.15017C224.121 7.98805 224.173 7.85541 224.276 7.75224C224.394 7.64907 224.526 7.59748 224.674 7.59748H227.526C227.688 7.59748 227.82 7.64907 227.923 7.75224C228.027 7.85541 228.078 7.98805 228.078 8.15017V17.0595L234.379 8.01753C234.453 7.89962 234.548 7.80382 234.666 7.73013C234.784 7.6417 234.939 7.59748 235.131 7.59748H237.695C237.842 7.59748 237.968 7.64907 238.071 7.75224C238.189 7.85541 238.248 7.98805 238.248 8.15017V22.5201C238.248 22.6822 238.189 22.8148 238.071 22.918C237.968 23.0212 237.842 23.0728 237.695 23.0728H234.843C234.681 23.0728 234.541 23.0212 234.423 22.918C234.32 22.8148 234.268 22.6822 234.268 22.5201V13.9423L227.99 22.6527C227.916 22.7559 227.82 22.8517 227.702 22.9401C227.599 23.0285 227.444 23.0728 227.238 23.0728H224.674ZM241.217 23.0728C241.055 23.0728 240.922 23.0212 240.819 22.918C240.716 22.8001 240.664 22.6674 240.664 22.5201V8.15017C240.664 7.98805 240.716 7.85541 240.819 7.75224C240.937 7.64907 241.07 7.59748 241.217 7.59748H244.069C244.231 7.59748 244.364 7.64907 244.467 7.75224C244.57 7.85541 244.622 7.98805 244.622 8.15017V17.0595L250.922 8.01753C250.996 7.89962 251.092 7.80382 251.21 7.73013C251.328 7.6417 251.482 7.59748 251.674 7.59748H254.238C254.386 7.59748 254.511 7.64907 254.614 7.75224C254.732 7.85541 254.791 7.98805 254.791 8.15017V22.5201C254.791 22.6822 254.732 22.8148 254.614 22.918C254.511 23.0212 254.386 23.0728 254.238 23.0728H251.387C251.224 23.0728 251.084 23.0212 250.967 22.918C250.863 22.8148 250.812 22.6822 250.812 22.5201V13.9423L244.533 22.6527C244.46 22.7559 244.364 22.8517 244.246 22.9401C244.143 23.0285 243.988 23.0728 243.782 23.0728H241.217ZM247.805 6.69108C246.862 6.69108 246.103 6.55106 245.528 6.27103C244.953 5.97627 244.533 5.59307 244.268 5.12144C244.003 4.63508 243.87 4.1045 243.87 3.5297C243.87 3.41179 243.907 3.31599 243.981 3.2423C244.054 3.15387 244.157 3.10966 244.29 3.10966H246.059C246.191 3.10966 246.295 3.15387 246.368 3.2423C246.442 3.31599 246.479 3.41179 246.479 3.5297C246.479 3.7213 246.516 3.9129 246.589 4.1045C246.663 4.28136 246.796 4.42874 246.987 4.54665C247.179 4.64981 247.451 4.7014 247.805 4.7014C248.159 4.7014 248.424 4.64981 248.601 4.54665C248.793 4.42874 248.925 4.28136 248.999 4.1045C249.073 3.9129 249.11 3.7213 249.11 3.5297C249.11 3.41179 249.146 3.31599 249.22 3.2423C249.294 3.15387 249.397 3.10966 249.53 3.10966H251.298C251.431 3.10966 251.534 3.15387 251.608 3.2423C251.681 3.31599 251.718 3.41179 251.718 3.5297C251.718 4.1045 251.586 4.63508 251.32 5.12144C251.07 5.59307 250.657 5.97627 250.082 6.27103C249.507 6.55106 248.748 6.69108 247.805 6.69108Z" fill="#9AC731"/>
<path d="M60.9135 36.9469C60.1609 36.9469 59.5321 36.8033 59.0271 36.5161C58.5221 36.229 58.1359 35.8329 57.8685 35.3278C57.6012 34.8129 57.4526 34.2287 57.4229 33.5751C57.413 33.4068 57.4081 33.1939 57.4081 32.9364C57.4081 32.6691 57.413 32.4562 57.4229 32.2977C57.4526 31.6343 57.6012 31.05 57.8685 30.545C58.1458 30.04 58.5369 29.6439 59.042 29.3567C59.547 29.0696 60.1708 28.926 60.9135 28.926C61.6562 28.926 62.28 29.0696 62.785 29.3567C63.2901 29.6439 63.6762 30.04 63.9436 30.545C64.2209 31.05 64.3744 31.6343 64.4041 32.2977C64.414 32.4562 64.4189 32.6691 64.4189 32.9364C64.4189 33.1939 64.414 33.4068 64.4041 33.5751C64.3744 34.2287 64.2258 34.8129 63.9585 35.3278C63.6911 35.8329 63.3049 36.229 62.7999 36.5161C62.2949 36.8033 61.6661 36.9469 60.9135 36.9469ZM60.9135 35.8032C61.5274 35.8032 62.0176 35.6101 62.384 35.2239C62.7504 34.8278 62.9484 34.2534 62.9781 33.5009C62.988 33.3523 62.993 33.1642 62.993 32.9364C62.993 32.7087 62.988 32.5205 62.9781 32.372C62.9484 31.6194 62.7504 31.05 62.384 30.6638C62.0176 30.2678 61.5274 30.0697 60.9135 30.0697C60.2996 30.0697 59.8044 30.2678 59.4281 30.6638C59.0618 31.05 58.8687 31.6194 58.8489 32.372C58.839 32.5205 58.834 32.7087 58.834 32.9364C58.834 33.1642 58.839 33.3523 58.8489 33.5009C58.8687 34.2534 59.0618 34.8278 59.4281 35.2239C59.8044 35.6101 60.2996 35.8032 60.9135 35.8032ZM69.1753 36.9469C68.4128 36.9469 67.7741 36.8033 67.2592 36.5161C66.7542 36.2191 66.368 35.8032 66.1006 35.2684C65.8432 34.7238 65.7045 34.095 65.6847 33.382C65.6748 33.085 65.6699 32.7879 65.6699 32.4908C65.6699 32.1938 65.6748 31.8967 65.6847 31.5996C65.6847 30.6985 65.759 29.9509 65.9075 29.3567C66.0561 28.7626 66.2789 28.2774 66.5759 27.9011C66.8829 27.5149 67.2691 27.198 67.7345 26.9505C68.1999 26.7029 68.7495 26.49 69.3832 26.3118C70.017 26.1236 70.7399 25.9256 71.5518 25.7176C71.641 25.6978 71.7251 25.7127 71.8044 25.7622C71.8935 25.8117 71.943 25.881 71.9529 25.9701L72.0717 26.5791C72.0915 26.6683 72.0767 26.7475 72.0272 26.8168C71.9876 26.8861 71.9232 26.9307 71.8341 26.9505C71.0914 27.1386 70.4428 27.302 69.8883 27.4406C69.3337 27.5793 68.8683 27.7427 68.492 27.9308C68.1157 28.109 67.8137 28.3417 67.586 28.6289C67.3582 28.9161 67.1998 29.2973 67.1107 29.7726C67.0314 30.2479 67.0067 30.8569 67.0364 31.5996L66.7096 31.4659C66.7591 31.0995 66.9126 30.7678 67.1701 30.4708C67.4374 30.1638 67.7692 29.9162 68.1653 29.7281C68.5613 29.5399 68.9822 29.4459 69.4278 29.4459C70.1111 29.4459 70.6854 29.5894 71.1508 29.8766C71.6261 30.1638 71.9876 30.5549 72.2351 31.05C72.4926 31.5452 72.6362 32.1145 72.6659 32.7582C72.6857 33.0949 72.6857 33.387 72.6659 33.6345C72.6362 34.2782 72.4876 34.8525 72.2203 35.3576C71.9529 35.8527 71.5667 36.2438 71.0617 36.531C70.5567 36.8082 69.9279 36.9469 69.1753 36.9469ZM69.1753 35.8477C69.7991 35.8477 70.2943 35.6546 70.6606 35.2684C71.027 34.8822 71.2201 34.3178 71.2399 33.5751C71.2498 33.4761 71.2548 33.3622 71.2548 33.2335C71.2548 33.1048 71.2498 32.9711 71.2399 32.8325C71.2201 32.0799 71.027 31.5105 70.6606 31.1243C70.3042 30.7381 69.8536 30.545 69.309 30.545C68.6851 30.545 68.1702 30.7381 67.7642 31.1243C67.3582 31.5105 67.1404 32.0799 67.1107 32.8325C67.1008 32.9711 67.0958 33.1048 67.0958 33.2335C67.0958 33.3622 67.1008 33.4761 67.1107 33.5751C67.1404 34.3178 67.3384 34.8822 67.7048 35.2684C68.0712 35.6546 68.5613 35.8477 69.1753 35.8477ZM74.5234 39.6205C74.4243 39.6205 74.3402 39.5858 74.2708 39.5165C74.2114 39.4571 74.1817 39.3779 74.1817 39.2789V29.4162C74.1817 29.3171 74.2114 29.2379 74.2708 29.1785C74.3402 29.1092 74.4243 29.0745 74.5234 29.0745H75.2066C75.3056 29.0745 75.3849 29.1092 75.4443 29.1785C75.5136 29.2379 75.5483 29.3171 75.5483 29.4162V30.0697C75.7859 29.7429 76.1028 29.4706 76.4989 29.2528C76.895 29.0349 77.3901 28.926 77.9842 28.926C78.5388 28.926 79.0091 29.0201 79.3953 29.2082C79.7914 29.3963 80.1132 29.6538 80.3608 29.9806C80.6182 30.3074 80.8113 30.6787 80.9401 31.0946C81.0688 31.5105 81.1381 31.9561 81.148 32.4314C81.1579 32.5898 81.1629 32.7582 81.1629 32.9364C81.1629 33.1147 81.1579 33.283 81.148 33.4414C81.1381 33.9069 81.0688 34.3525 80.9401 34.7783C80.8113 35.1942 80.6182 35.5655 80.3608 35.8923C80.1132 36.2092 79.7914 36.4666 79.3953 36.6647C79.0091 36.8528 78.5388 36.9469 77.9842 36.9469C77.4099 36.9469 76.9247 36.8429 76.5286 36.635C76.1424 36.4171 75.8255 36.1497 75.578 35.8329V39.2789C75.578 39.3779 75.5483 39.4571 75.4888 39.5165C75.4294 39.5858 75.3453 39.6205 75.2363 39.6205H74.5234ZM77.6723 35.7437C78.1872 35.7437 78.5883 35.6348 78.8754 35.417C79.1725 35.1892 79.3854 34.8971 79.5141 34.5406C79.6429 34.1742 79.7171 33.7831 79.7369 33.3672C79.7468 33.08 79.7468 32.7928 79.7369 32.5057C79.7171 32.0898 79.6429 31.7036 79.5141 31.3471C79.3854 30.9807 79.1725 30.6886 78.8754 30.4708C78.5883 30.243 78.1872 30.1291 77.6723 30.1291C77.1871 30.1291 76.791 30.243 76.484 30.4708C76.187 30.6985 75.9641 30.9906 75.8156 31.3471C75.677 31.6937 75.5978 32.0502 75.578 32.4166C75.5681 32.575 75.5631 32.7631 75.5631 32.981C75.5631 33.1988 75.5681 33.3919 75.578 33.5603C75.5879 33.9069 75.6671 34.2485 75.8156 34.5852C75.9741 34.9218 76.2068 35.1991 76.5137 35.417C76.8207 35.6348 77.2069 35.7437 77.6723 35.7437ZM84.7976 36.9469C84.3025 36.9469 83.8519 36.8479 83.4459 36.6498C83.0399 36.4518 82.7131 36.1844 82.4656 35.8477C82.218 35.511 82.0942 35.1298 82.0942 34.704C82.0942 34.0207 82.3715 33.4761 82.926 33.0701C83.4806 32.6641 84.2034 32.3968 85.0946 32.268L87.3078 31.9561V31.5253C87.3078 31.05 87.1692 30.6787 86.8919 30.4113C86.6245 30.144 86.1839 30.0103 85.5699 30.0103C85.1243 30.0103 84.7629 30.0994 84.4856 30.2777C84.2183 30.4559 84.0301 30.6837 83.9212 30.9609C83.8618 31.1095 83.7578 31.1837 83.6093 31.1837H82.9409C82.832 31.1837 82.7478 31.154 82.6884 31.0946C82.6389 31.0253 82.6141 30.9461 82.6141 30.8569C82.6141 30.7084 82.6686 30.5252 82.7775 30.3074C82.8963 30.0895 83.0746 29.8766 83.3122 29.6687C83.5499 29.4607 83.8519 29.2874 84.2183 29.1488C84.5946 29.0003 85.0501 28.926 85.5848 28.926C86.1789 28.926 86.679 29.0052 87.085 29.1636C87.491 29.3122 87.8079 29.5152 88.0356 29.7726C88.2733 30.0301 88.4416 30.3222 88.5406 30.649C88.6496 30.9758 88.704 31.3075 88.704 31.6442V36.4567C88.704 36.5557 88.6694 36.6399 88.6001 36.7092C88.5406 36.7686 88.4614 36.7983 88.3624 36.7983H87.6791C87.5702 36.7983 87.486 36.7686 87.4266 36.7092C87.3672 36.6399 87.3375 36.5557 87.3375 36.4567V35.818C87.2088 35.9963 87.0355 36.1745 86.8176 36.3527C86.5998 36.5211 86.3275 36.6647 86.0007 36.7835C85.6739 36.8924 85.2729 36.9469 84.7976 36.9469ZM85.1095 35.8329C85.5155 35.8329 85.8868 35.7487 86.2235 35.5804C86.5602 35.4021 86.8226 35.1298 87.0107 34.7634C87.2088 34.397 87.3078 33.9366 87.3078 33.382V32.9661L85.5848 33.2186C84.8817 33.3177 84.352 33.486 83.9955 33.7237C83.639 33.9514 83.4608 34.2435 83.4608 34.6C83.4608 34.8773 83.54 35.11 83.6984 35.2981C83.8667 35.4764 84.0747 35.6101 84.3223 35.6992C84.5797 35.7883 84.8421 35.8329 85.1095 35.8329ZM93.1565 36.9469C92.5723 36.9469 92.0771 36.8776 91.6711 36.7389C91.275 36.5904 90.9532 36.4072 90.7057 36.1893C90.468 35.9616 90.2947 35.7289 90.1858 35.4912C90.0769 35.2437 90.0174 35.0159 90.0075 34.808C90.0075 34.7189 90.0373 34.6495 90.0967 34.6C90.1561 34.5406 90.2254 34.5109 90.3046 34.5109H91.0027C91.0919 34.5109 91.1661 34.5357 91.2255 34.5852C91.2849 34.6248 91.3295 34.699 91.3592 34.808C91.478 35.1843 91.7058 35.4467 92.0425 35.5952C92.3792 35.7437 92.7901 35.818 93.2753 35.818C93.5922 35.818 93.8843 35.7784 94.1517 35.6992C94.419 35.6101 94.627 35.4714 94.7755 35.2833C94.934 35.0951 95.0132 34.8624 95.0132 34.5852C95.0132 34.1792 94.8943 33.8722 94.6567 33.6643C94.4289 33.4563 94.0725 33.3523 93.5872 33.3523H92.7703C92.6713 33.3523 92.5921 33.3226 92.5326 33.2632C92.4732 33.2038 92.4435 33.1246 92.4435 33.0256V32.6245C92.4435 32.5354 92.4732 32.4611 92.5326 32.4017C92.5921 32.3324 92.6713 32.2977 92.7703 32.2977H93.4981C93.9041 32.2977 94.216 32.2185 94.4339 32.0601C94.6517 31.9016 94.7607 31.6491 94.7607 31.3025C94.7607 31.0946 94.7112 30.8966 94.6121 30.7084C94.5131 30.5203 94.3448 30.3668 94.1071 30.2479C93.8794 30.1192 93.5625 30.0549 93.1565 30.0549C92.5822 30.0549 92.1762 30.1539 91.9385 30.3519C91.7107 30.5401 91.5474 30.8223 91.4483 31.1986C91.4087 31.3075 91.3592 31.3818 91.2998 31.4214C91.2503 31.461 91.176 31.4808 91.077 31.4808H90.4086C90.3195 31.4808 90.2452 31.456 90.1858 31.4065C90.1264 31.357 90.0967 31.2877 90.0967 31.1986C90.1066 30.9015 90.1709 30.6193 90.2898 30.3519C90.4185 30.0846 90.6066 29.842 90.8542 29.6241C91.1117 29.4063 91.4285 29.2379 91.8048 29.1191C92.191 28.9904 92.6416 28.926 93.1565 28.926C93.8992 28.926 94.4834 29.0399 94.9092 29.2676C95.3449 29.4954 95.6519 29.7776 95.8301 30.1143C96.0183 30.441 96.1123 30.7678 96.1123 31.0946C96.1123 31.4808 96.048 31.8026 95.9192 32.0601C95.8004 32.3175 95.5628 32.5354 95.2063 32.7136C95.6519 32.882 95.9588 33.1345 96.1272 33.4712C96.2955 33.8078 96.3846 34.199 96.3946 34.6446C96.4045 35.1595 96.2658 35.5853 95.9787 35.922C95.7014 36.2587 95.3201 36.5161 94.8349 36.6944C94.3497 36.8627 93.7902 36.9469 93.1565 36.9469ZM100.861 36.9469C100.109 36.9469 99.4799 36.8033 98.9749 36.5161C98.4699 36.229 98.0837 35.8329 97.8163 35.3278C97.5489 34.8129 97.4004 34.2287 97.3707 33.5751C97.3608 33.4068 97.3558 33.1939 97.3558 32.9364C97.3558 32.6691 97.3608 32.4562 97.3707 32.2977C97.4004 31.6343 97.5489 31.05 97.8163 30.545C98.0936 30.04 98.4847 29.6439 98.9897 29.3567C99.4948 29.0696 100.119 28.926 100.861 28.926C101.604 28.926 102.228 29.0696 102.733 29.3567C103.238 29.6439 103.624 30.04 103.891 30.545C104.169 31.05 104.322 31.6343 104.352 32.2977C104.362 32.4562 104.367 32.6691 104.367 32.9364C104.367 33.1939 104.362 33.4068 104.352 33.5751C104.322 34.2287 104.174 34.8129 103.906 35.3278C103.639 35.8329 103.253 36.229 102.748 36.5161C102.243 36.8033 101.614 36.9469 100.861 36.9469ZM100.861 35.8032C101.475 35.8032 101.965 35.6101 102.332 35.2239C102.698 34.8278 102.896 34.2534 102.926 33.5009C102.936 33.3523 102.941 33.1642 102.941 32.9364C102.941 32.7087 102.936 32.5205 102.926 32.372C102.896 31.6194 102.698 31.05 102.332 30.6638C101.965 30.2678 101.475 30.0697 100.861 30.0697C100.247 30.0697 99.7522 30.2678 99.3759 30.6638C99.0095 31.05 98.8164 31.6194 98.7966 32.372C98.7867 32.5205 98.7818 32.7087 98.7818 32.9364C98.7818 33.1642 98.7867 33.3523 98.7966 33.5009C98.8164 34.2534 99.0095 34.8278 99.3759 35.2239C99.7522 35.6101 100.247 35.8032 100.861 35.8032ZM106.197 36.7983C106.098 36.7983 106.014 36.7686 105.944 36.7092C105.885 36.6399 105.855 36.5557 105.855 36.4567V29.4162C105.855 29.3171 105.885 29.2379 105.944 29.1785C106.014 29.1092 106.098 29.0745 106.197 29.0745H109.286C110.217 29.0745 110.915 29.2627 111.381 29.639C111.856 30.0152 112.094 30.5203 112.094 31.154C112.094 31.5996 112.01 31.9363 111.841 32.164C111.673 32.3918 111.435 32.5849 111.128 32.7433C111.505 32.9018 111.787 33.1592 111.975 33.5157C112.173 33.8623 112.272 34.2237 112.272 34.6C112.272 35.313 112.019 35.8576 111.514 36.2339C111.009 36.6102 110.306 36.7983 109.405 36.7983H106.197ZM107.222 35.714H109.286C109.762 35.714 110.143 35.6249 110.43 35.4467C110.727 35.2585 110.876 34.9763 110.876 34.6C110.876 34.2039 110.742 33.9168 110.475 33.7385C110.207 33.5504 109.811 33.4563 109.286 33.4563H107.222V35.714ZM107.222 32.3571H109.197C109.673 32.3571 110.049 32.2532 110.326 32.0452C110.613 31.8373 110.757 31.5452 110.757 31.1689C110.757 30.7827 110.613 30.5203 110.326 30.3816C110.049 30.2331 109.673 30.1588 109.197 30.1588H107.222V32.3571ZM115.964 36.9469C115.469 36.9469 115.018 36.8479 114.612 36.6498C114.206 36.4518 113.879 36.1844 113.632 35.8477C113.384 35.511 113.26 35.1298 113.26 34.704C113.26 34.0207 113.538 33.4761 114.092 33.0701C114.647 32.6641 115.37 32.3968 116.261 32.268L118.474 31.9561V31.5253C118.474 31.05 118.335 30.6787 118.058 30.4113C117.791 30.144 117.35 30.0103 116.736 30.0103C116.291 30.0103 115.929 30.0994 115.652 30.2777C115.385 30.4559 115.196 30.6837 115.087 30.9609C115.028 31.1095 114.924 31.1837 114.776 31.1837H114.107C113.998 31.1837 113.914 31.154 113.855 31.0946C113.805 31.0253 113.78 30.9461 113.78 30.8569C113.78 30.7084 113.835 30.5252 113.944 30.3074C114.063 30.0895 114.241 29.8766 114.478 29.6687C114.716 29.4607 115.018 29.2874 115.385 29.1488C115.761 29.0003 116.216 28.926 116.751 28.926C117.345 28.926 117.845 29.0052 118.251 29.1636C118.657 29.3122 118.974 29.5152 119.202 29.7726C119.44 30.0301 119.608 30.3222 119.707 30.649C119.816 30.9758 119.87 31.3075 119.87 31.6442V36.4567C119.87 36.5557 119.836 36.6399 119.766 36.7092C119.707 36.7686 119.628 36.7983 119.529 36.7983H118.845C118.736 36.7983 118.652 36.7686 118.593 36.7092C118.533 36.6399 118.504 36.5557 118.504 36.4567V35.818C118.375 35.9963 118.202 36.1745 117.984 36.3527C117.766 36.5211 117.494 36.6647 117.167 36.7835C116.84 36.8924 116.439 36.9469 115.964 36.9469ZM116.276 35.8329C116.682 35.8329 117.053 35.7487 117.39 35.5804C117.726 35.4021 117.989 35.1298 118.177 34.7634C118.375 34.397 118.474 33.9366 118.474 33.382V32.9661L116.751 33.2186C116.048 33.3177 115.518 33.486 115.162 33.7237C114.805 33.9514 114.627 34.2435 114.627 34.6C114.627 34.8773 114.706 35.11 114.865 35.2981C115.033 35.4764 115.241 35.6101 115.488 35.6992C115.746 35.7883 116.008 35.8329 116.276 35.8329ZM123.996 36.7983C123.897 36.7983 123.813 36.7686 123.743 36.7092C123.684 36.6399 123.654 36.5557 123.654 36.4567V30.2628H121.07C120.971 30.2628 120.887 30.2331 120.817 30.1737C120.758 30.1044 120.728 30.0202 120.728 29.9212V29.4162C120.728 29.3171 120.758 29.2379 120.817 29.1785C120.887 29.1092 120.971 29.0745 121.07 29.0745H127.605C127.704 29.0745 127.784 29.1092 127.843 29.1785C127.912 29.2379 127.947 29.3171 127.947 29.4162V29.9212C127.947 30.0202 127.912 30.1044 127.843 30.1737C127.784 30.2331 127.704 30.2628 127.605 30.2628H125.021V36.4567C125.021 36.5557 124.991 36.6399 124.932 36.7092C124.872 36.7686 124.788 36.7983 124.679 36.7983H123.996ZM131.938 36.9469C130.918 36.9469 130.106 36.635 129.502 36.0111C128.898 35.3774 128.567 34.5159 128.507 33.4266C128.497 33.2979 128.492 33.1345 128.492 32.9364C128.492 32.7285 128.497 32.5601 128.507 32.4314C128.547 31.7283 128.71 31.1144 128.997 30.5896C129.285 30.0549 129.676 29.6439 130.171 29.3567C130.676 29.0696 131.265 28.926 131.938 28.926C132.691 28.926 133.32 29.0844 133.825 29.4013C134.34 29.7182 134.731 30.1687 134.998 30.753C135.266 31.3372 135.399 32.0205 135.399 32.8027V33.0553C135.399 33.1642 135.365 33.2484 135.295 33.3078C135.236 33.3672 135.157 33.3969 135.058 33.3969H129.918C129.918 33.4068 129.918 33.4266 129.918 33.4563C129.918 33.486 129.918 33.5108 129.918 33.5306C129.938 33.9366 130.027 34.3178 130.186 34.6743C130.344 35.0209 130.572 35.3031 130.869 35.5209C131.166 35.7388 131.522 35.8477 131.938 35.8477C132.295 35.8477 132.592 35.7933 132.83 35.6843C133.067 35.5754 133.26 35.4566 133.409 35.3278C133.557 35.1892 133.656 35.0852 133.706 35.0159C133.795 34.8872 133.864 34.8129 133.914 34.7931C133.963 34.7634 134.043 34.7486 134.152 34.7486H134.865C134.964 34.7486 135.043 34.7783 135.102 34.8377C135.171 34.8872 135.201 34.9615 135.191 35.0605C135.181 35.209 135.102 35.3922 134.954 35.6101C134.805 35.818 134.592 36.026 134.315 36.2339C134.038 36.4419 133.701 36.6151 133.305 36.7538C132.909 36.8825 132.453 36.9469 131.938 36.9469ZM129.918 32.372H133.988V32.3274C133.988 31.8818 133.904 31.4857 133.736 31.1392C133.577 30.7926 133.345 30.5203 133.038 30.3222C132.731 30.1143 132.364 30.0103 131.938 30.0103C131.513 30.0103 131.146 30.1143 130.839 30.3222C130.542 30.5203 130.314 30.7926 130.156 31.1392C129.998 31.4857 129.918 31.8818 129.918 32.3274V32.372ZM136.433 36.7983C136.334 36.7983 136.249 36.7637 136.18 36.6944C136.111 36.625 136.076 36.5409 136.076 36.4419V35.8923C136.076 35.6843 136.18 35.5754 136.388 35.5655C136.695 35.5556 136.952 35.412 137.16 35.1347C137.368 34.8476 137.527 34.397 137.636 33.7831C137.745 33.1592 137.799 32.3373 137.799 31.3174V29.4162C137.799 29.3171 137.829 29.2379 137.888 29.1785C137.958 29.1092 138.042 29.0745 138.141 29.0745H142.864C142.963 29.0745 143.042 29.1092 143.102 29.1785C143.171 29.2379 143.206 29.3171 143.206 29.4162V36.4567C143.206 36.5557 143.171 36.6399 143.102 36.7092C143.042 36.7686 142.963 36.7983 142.864 36.7983H142.151C142.052 36.7983 141.973 36.7686 141.914 36.7092C141.854 36.6399 141.824 36.5557 141.824 36.4567V30.2628H139.151V31.4808C139.151 32.4314 139.096 33.2484 138.987 33.9316C138.878 34.605 138.71 35.1546 138.482 35.5804C138.265 35.9963 137.982 36.3032 137.636 36.5013C137.299 36.6993 136.898 36.7983 136.433 36.7983ZM145.39 36.7983C145.291 36.7983 145.207 36.7686 145.138 36.7092C145.079 36.6399 145.049 36.5557 145.049 36.4567V29.4162C145.049 29.3171 145.079 29.2379 145.138 29.1785C145.207 29.1092 145.291 29.0745 145.39 29.0745H146.103C146.202 29.0745 146.282 29.1092 146.341 29.1785C146.41 29.2379 146.445 29.3171 146.445 29.4162V31.5996H148.109C149.119 31.5996 149.856 31.8373 150.322 32.3126C150.787 32.7879 151.02 33.4315 151.02 34.2435C151.02 35.1149 150.762 35.7586 150.248 36.1745C149.733 36.5904 148.96 36.7983 147.93 36.7983H145.39ZM146.43 35.6843H147.99C148.584 35.6843 149.02 35.5804 149.297 35.3724C149.574 35.1546 149.713 34.7783 149.713 34.2435C149.713 33.7286 149.579 33.3474 149.312 33.0998C149.044 32.8424 148.604 32.7136 147.99 32.7136H146.43V35.6843ZM152.46 36.7983C152.361 36.7983 152.277 36.7686 152.208 36.7092C152.148 36.6399 152.119 36.5557 152.119 36.4567V29.4162C152.119 29.3171 152.148 29.2379 152.208 29.1785C152.277 29.1092 152.361 29.0745 152.46 29.0745H153.173C153.272 29.0745 153.352 29.1092 153.411 29.1785C153.47 29.2379 153.5 29.3171 153.5 29.4162V32.268H157.555V29.4162C157.555 29.3171 157.585 29.2379 157.644 29.1785C157.714 29.1092 157.798 29.0745 157.897 29.0745H158.595C158.694 29.0745 158.773 29.1092 158.832 29.1785C158.902 29.2379 158.936 29.3171 158.936 29.4162V36.4567C158.936 36.5557 158.902 36.6399 158.832 36.7092C158.773 36.7686 158.694 36.7983 158.595 36.7983H157.897C157.798 36.7983 157.714 36.7686 157.644 36.7092C157.585 36.6399 157.555 36.5557 157.555 36.4567V33.4563H153.5V36.4567C153.5 36.5557 153.47 36.6399 153.411 36.7092C153.352 36.7686 153.272 36.7983 153.173 36.7983H152.46ZM162.952 36.9469C162.457 36.9469 162.007 36.8479 161.601 36.6498C161.195 36.4518 160.868 36.1844 160.62 35.8477C160.373 35.511 160.249 35.1298 160.249 34.704C160.249 34.0207 160.526 33.4761 161.081 33.0701C161.635 32.6641 162.358 32.3968 163.25 32.268L165.463 31.9561V31.5253C165.463 31.05 165.324 30.6787 165.047 30.4113C164.779 30.144 164.339 30.0103 163.725 30.0103C163.279 30.0103 162.918 30.0994 162.641 30.2777C162.373 30.4559 162.185 30.6837 162.076 30.9609C162.017 31.1095 161.913 31.1837 161.764 31.1837H161.096C160.987 31.1837 160.903 31.154 160.843 31.0946C160.794 31.0253 160.769 30.9461 160.769 30.8569C160.769 30.7084 160.823 30.5252 160.932 30.3074C161.051 30.0895 161.229 29.8766 161.467 29.6687C161.705 29.4607 162.007 29.2874 162.373 29.1488C162.749 29.0003 163.205 28.926 163.74 28.926C164.334 28.926 164.834 29.0052 165.24 29.1636C165.646 29.3122 165.963 29.5152 166.191 29.7726C166.428 30.0301 166.597 30.3222 166.696 30.649C166.804 30.9758 166.859 31.3075 166.859 31.6442V36.4567C166.859 36.5557 166.824 36.6399 166.755 36.7092C166.696 36.7686 166.616 36.7983 166.517 36.7983H165.834C165.725 36.7983 165.641 36.7686 165.582 36.7092C165.522 36.6399 165.492 36.5557 165.492 36.4567V35.818C165.364 35.9963 165.19 36.1745 164.973 36.3527C164.755 36.5211 164.482 36.6647 164.156 36.7835C163.829 36.8924 163.428 36.9469 162.952 36.9469ZM163.264 35.8329C163.67 35.8329 164.042 35.7487 164.378 35.5804C164.715 35.4021 164.978 35.1298 165.166 34.7634C165.364 34.397 165.463 33.9366 165.463 33.382V32.9661L163.74 33.2186C163.037 33.3177 162.507 33.486 162.15 33.7237C161.794 33.9514 161.616 34.2435 161.616 34.6C161.616 34.8773 161.695 35.11 161.853 35.2981C162.022 35.4764 162.23 35.6101 162.477 35.6992C162.735 35.7883 162.997 35.8329 163.264 35.8329ZM173.435 36.7983C173.327 36.7983 173.242 36.7686 173.183 36.7092C173.124 36.6399 173.094 36.5557 173.094 36.4567V34.0356H171.386V33.9613C170.455 33.9613 169.762 33.7336 169.306 33.2781C168.861 32.8127 168.638 32.2235 168.638 31.5105C168.638 30.6787 168.88 30.0648 169.366 29.6687C169.861 29.2726 170.603 29.0745 171.594 29.0745H174.148C174.247 29.0745 174.327 29.1092 174.386 29.1785C174.455 29.2379 174.49 29.3171 174.49 29.4162V36.4567C174.49 36.5557 174.455 36.6399 174.386 36.7092C174.327 36.7686 174.247 36.7983 174.148 36.7983H173.435ZM168.727 36.7983C168.638 36.7983 168.564 36.7686 168.504 36.7092C168.445 36.6498 168.415 36.5805 168.415 36.5013C168.415 36.4617 168.42 36.4221 168.43 36.3824C168.45 36.3329 168.479 36.2834 168.519 36.2339L170.287 33.6197L171.712 33.7237L169.826 36.5755C169.786 36.625 169.732 36.6746 169.663 36.7241C169.593 36.7736 169.519 36.7983 169.44 36.7983H168.727ZM171.43 32.9216H173.109V30.1885H171.549C170.995 30.1885 170.584 30.2876 170.316 30.4856C170.059 30.6737 169.93 31.0154 169.93 31.5105C169.93 31.9165 170.049 32.2532 170.287 32.5205C170.534 32.7879 170.915 32.9216 171.43 32.9216ZM179.942 36.7983C179.843 36.7983 179.759 36.7686 179.69 36.7092C179.63 36.6399 179.601 36.5557 179.601 36.4567V29.4162C179.601 29.3171 179.63 29.2379 179.69 29.1785C179.759 29.1092 179.843 29.0745 179.942 29.0745H185.839C185.938 29.0745 186.017 29.1092 186.077 29.1785C186.146 29.2379 186.181 29.3171 186.181 29.4162V36.4567C186.181 36.5557 186.146 36.6399 186.077 36.7092C186.017 36.7686 185.938 36.7983 185.839 36.7983H185.126C185.027 36.7983 184.948 36.7686 184.888 36.7092C184.829 36.6399 184.799 36.5557 184.799 36.4567V30.2628H180.982V36.4567C180.982 36.5557 180.952 36.6399 180.893 36.7092C180.833 36.7686 180.754 36.7983 180.655 36.7983H179.942ZM187.648 36.7983C187.549 36.7983 187.465 36.7637 187.396 36.6944C187.326 36.625 187.292 36.5409 187.292 36.4419V35.8923C187.292 35.6843 187.396 35.5754 187.604 35.5655C187.911 35.5556 188.168 35.412 188.376 35.1347C188.584 34.8476 188.742 34.397 188.851 33.7831C188.96 33.1592 189.015 32.3373 189.015 31.3174V29.4162C189.015 29.3171 189.044 29.2379 189.104 29.1785C189.173 29.1092 189.257 29.0745 189.356 29.0745H194.08C194.179 29.0745 194.258 29.1092 194.317 29.1785C194.387 29.2379 194.421 29.3171 194.421 29.4162V36.4567C194.421 36.5557 194.387 36.6399 194.317 36.7092C194.258 36.7686 194.179 36.7983 194.08 36.7983H193.367C193.268 36.7983 193.189 36.7686 193.129 36.7092C193.07 36.6399 193.04 36.5557 193.04 36.4567V30.2628H190.366V31.4808C190.366 32.4314 190.312 33.2484 190.203 33.9316C190.094 34.605 189.926 35.1546 189.698 35.5804C189.48 35.9963 189.198 36.3032 188.851 36.5013C188.515 36.6993 188.114 36.7983 187.648 36.7983ZM198.418 36.9469C197.923 36.9469 197.472 36.8479 197.066 36.6498C196.66 36.4518 196.334 36.1844 196.086 35.8477C195.839 35.511 195.715 35.1298 195.715 34.704C195.715 34.0207 195.992 33.4761 196.547 33.0701C197.101 32.6641 197.824 32.3968 198.715 32.268L200.928 31.9561V31.5253C200.928 31.05 200.79 30.6787 200.512 30.4113C200.245 30.144 199.804 30.0103 199.19 30.0103C198.745 30.0103 198.383 30.0994 198.106 30.2777C197.839 30.4559 197.651 30.6837 197.542 30.9609C197.482 31.1095 197.378 31.1837 197.23 31.1837H196.561C196.452 31.1837 196.368 31.154 196.309 31.0946C196.259 31.0253 196.235 30.9461 196.235 30.8569C196.235 30.7084 196.289 30.5252 196.398 30.3074C196.517 30.0895 196.695 29.8766 196.933 29.6687C197.17 29.4607 197.472 29.2874 197.839 29.1488C198.215 29.0003 198.671 28.926 199.205 28.926C199.799 28.926 200.3 29.0052 200.706 29.1636C201.112 29.3122 201.428 29.5152 201.656 29.7726C201.894 30.0301 202.062 30.3222 202.161 30.649C202.27 30.9758 202.325 31.3075 202.325 31.6442V36.4567C202.325 36.5557 202.29 36.6399 202.221 36.7092C202.161 36.7686 202.082 36.7983 201.983 36.7983H201.3C201.191 36.7983 201.107 36.7686 201.047 36.7092C200.988 36.6399 200.958 36.5557 200.958 36.4567V35.818C200.829 35.9963 200.656 36.1745 200.438 36.3527C200.22 36.5211 199.948 36.6647 199.621 36.7835C199.294 36.8924 198.893 36.9469 198.418 36.9469ZM198.73 35.8329C199.136 35.8329 199.507 35.7487 199.844 35.5804C200.181 35.4021 200.443 35.1298 200.631 34.7634C200.829 34.397 200.928 33.9366 200.928 33.382V32.9661L199.205 33.2186C198.502 33.3177 197.972 33.486 197.616 33.7237C197.26 33.9514 197.081 34.2435 197.081 34.6C197.081 34.8773 197.16 35.11 197.319 35.2981C197.487 35.4764 197.695 35.6101 197.943 35.6992C198.2 35.7883 198.463 35.8329 198.73 35.8329ZM206.45 36.7983C206.351 36.7983 206.267 36.7686 206.198 36.7092C206.138 36.6399 206.109 36.5557 206.109 36.4567V30.2628H203.524C203.425 30.2628 203.341 30.2331 203.272 30.1737C203.212 30.1044 203.182 30.0202 203.182 29.9212V29.4162C203.182 29.3171 203.212 29.2379 203.272 29.1785C203.341 29.1092 203.425 29.0745 203.524 29.0745H210.06C210.159 29.0745 210.238 29.1092 210.297 29.1785C210.367 29.2379 210.401 29.3171 210.401 29.4162V29.9212C210.401 30.0202 210.367 30.1044 210.297 30.1737C210.238 30.2331 210.159 30.2628 210.06 30.2628H207.475V36.4567C207.475 36.5557 207.445 36.6399 207.386 36.7092C207.327 36.7686 207.242 36.7983 207.134 36.7983H206.45ZM215.195 39.6205C215.096 39.6205 215.012 39.5858 214.942 39.5165C214.883 39.4571 214.853 39.3779 214.853 39.2789V36.7983C213.982 36.7983 213.264 36.6548 212.699 36.3676C212.145 36.0804 211.729 35.6843 211.452 35.1793C211.184 34.6743 211.031 34.1 210.991 33.4563C210.971 33.1097 210.971 32.7631 210.991 32.4166C211.031 31.763 211.189 31.1887 211.467 30.6936C211.744 30.1885 212.16 29.7924 212.714 29.5053C213.279 29.2181 213.992 29.0745 214.853 29.0745V26.594C214.853 26.495 214.883 26.4157 214.942 26.3563C215.012 26.287 215.096 26.2524 215.195 26.2524H215.893C215.992 26.2524 216.071 26.287 216.131 26.3563C216.2 26.4157 216.235 26.495 216.235 26.594V29.0745C217.096 29.0745 217.804 29.2181 218.359 29.5053C218.923 29.7924 219.344 30.1885 219.621 30.6936C219.908 31.1887 220.067 31.763 220.096 32.4166C220.116 32.7631 220.116 33.1097 220.096 33.4563C220.067 34.1 219.913 34.6743 219.636 35.1793C219.359 35.6843 218.943 36.0804 218.388 36.3676C217.834 36.6548 217.116 36.7983 216.235 36.7983V39.2789C216.235 39.3779 216.2 39.4571 216.131 39.5165C216.071 39.5858 215.992 39.6205 215.893 39.6205H215.195ZM214.853 35.6546V30.2182C214.051 30.2182 213.447 30.4113 213.041 30.7975C212.635 31.1837 212.412 31.7581 212.373 32.5205C212.363 32.6691 212.358 32.8127 212.358 32.9513C212.358 33.08 212.363 33.2137 212.373 33.3523C212.422 34.1148 212.645 34.6891 213.041 35.0753C213.447 35.4615 214.051 35.6546 214.853 35.6546ZM216.235 35.6546C217.047 35.6546 217.651 35.4615 218.047 35.0753C218.453 34.6792 218.675 34.1049 218.715 33.3523C218.725 33.2137 218.73 33.08 218.73 32.9513C218.73 32.8127 218.725 32.6691 218.715 32.5205C218.685 31.7581 218.463 31.1837 218.047 30.7975C217.641 30.4113 217.037 30.2182 216.235 30.2182V35.6546ZM224.757 36.9469C224.005 36.9469 223.376 36.8033 222.871 36.5161C222.366 36.229 221.98 35.8329 221.712 35.3278C221.445 34.8129 221.297 34.2287 221.267 33.5751C221.257 33.4068 221.252 33.1939 221.252 32.9364C221.252 32.6691 221.257 32.4562 221.267 32.2977C221.297 31.6343 221.445 31.05 221.712 30.545C221.99 30.04 222.381 29.6439 222.886 29.3567C223.391 29.0696 224.015 28.926 224.757 28.926C225.5 28.926 226.124 29.0696 226.629 29.3567C227.134 29.6439 227.52 30.04 227.788 30.545C228.065 31.05 228.218 31.6343 228.248 32.2977C228.258 32.4562 228.263 32.6691 228.263 32.9364C228.263 33.1939 228.258 33.4068 228.248 33.5751C228.218 34.2287 228.07 34.8129 227.802 35.3278C227.535 35.8329 227.149 36.229 226.644 36.5161C226.139 36.8033 225.51 36.9469 224.757 36.9469ZM224.757 35.8032C225.371 35.8032 225.862 35.6101 226.228 35.2239C226.594 34.8278 226.792 34.2534 226.822 33.5009C226.832 33.3523 226.837 33.1642 226.837 32.9364C226.837 32.7087 226.832 32.5205 226.822 32.372C226.792 31.6194 226.594 31.05 226.228 30.6638C225.862 30.2678 225.371 30.0697 224.757 30.0697C224.143 30.0697 223.648 30.2678 223.272 30.6638C222.906 31.05 222.713 31.6194 222.693 32.372C222.683 32.5205 222.678 32.7087 222.678 32.9364C222.678 33.1642 222.683 33.3523 222.693 33.5009C222.713 34.2534 222.906 34.8278 223.272 35.2239C223.648 35.6101 224.143 35.8032 224.757 35.8032ZM230.108 39.6205C230.009 39.6205 229.925 39.5858 229.855 39.5165C229.796 39.4571 229.766 39.3779 229.766 39.2789V29.4162C229.766 29.3171 229.796 29.2379 229.855 29.1785C229.925 29.1092 230.009 29.0745 230.108 29.0745H230.791C230.89 29.0745 230.969 29.1092 231.029 29.1785C231.098 29.2379 231.133 29.3171 231.133 29.4162V30.0697C231.37 29.7429 231.687 29.4706 232.083 29.2528C232.48 29.0349 232.975 28.926 233.569 28.926C234.123 28.926 234.594 29.0201 234.98 29.2082C235.376 29.3963 235.698 29.6538 235.945 29.9806C236.203 30.3074 236.396 30.6787 236.525 31.0946C236.653 31.5105 236.723 31.9561 236.733 32.4314C236.742 32.5898 236.747 32.7582 236.747 32.9364C236.747 33.1147 236.742 33.283 236.733 33.4414C236.723 33.9069 236.653 34.3525 236.525 34.7783C236.396 35.1942 236.203 35.5655 235.945 35.8923C235.698 36.2092 235.376 36.4666 234.98 36.6647C234.594 36.8528 234.123 36.9469 233.569 36.9469C232.994 36.9469 232.509 36.8429 232.113 36.635C231.727 36.4171 231.41 36.1497 231.163 35.8329V39.2789C231.163 39.3779 231.133 39.4571 231.073 39.5165C231.014 39.5858 230.93 39.6205 230.821 39.6205H230.108ZM233.257 35.7437C233.772 35.7437 234.173 35.6348 234.46 35.417C234.757 35.1892 234.97 34.8971 235.099 34.5406C235.227 34.1742 235.302 33.7831 235.321 33.3672C235.331 33.08 235.331 32.7928 235.321 32.5057C235.302 32.0898 235.227 31.7036 235.099 31.3471C234.97 30.9807 234.757 30.6886 234.46 30.4708C234.173 30.243 233.772 30.1291 233.257 30.1291C232.772 30.1291 232.376 30.243 232.069 30.4708C231.772 30.6985 231.549 30.9906 231.4 31.3471C231.262 31.6937 231.182 32.0502 231.163 32.4166C231.153 32.575 231.148 32.7631 231.148 32.981C231.148 33.1988 231.153 33.3919 231.163 33.5603C231.172 33.9069 231.252 34.2485 231.4 34.5852C231.559 34.9218 231.791 35.1991 232.098 35.417C232.405 35.6348 232.791 35.7437 233.257 35.7437ZM238.555 36.7983C238.456 36.7983 238.377 36.7686 238.317 36.7092C238.258 36.6498 238.228 36.5706 238.228 36.4716V29.3567C238.228 29.2775 238.258 29.2132 238.317 29.1636C238.387 29.1042 238.456 29.0745 238.525 29.0745H239.283C239.441 29.0745 239.565 29.1537 239.654 29.3122L242.179 34.0356L244.719 29.3122C244.808 29.1537 244.932 29.0745 245.091 29.0745H245.833C245.913 29.0745 245.982 29.1042 246.041 29.1636C246.101 29.2132 246.13 29.2775 246.13 29.3567V36.4716C246.13 36.5706 246.101 36.6498 246.041 36.7092C245.982 36.7686 245.908 36.7983 245.819 36.7983H245.091C244.992 36.7983 244.912 36.7686 244.853 36.7092C244.794 36.6498 244.764 36.5706 244.764 36.4716V30.545L245.284 30.6044L242.863 35.1793C242.813 35.2783 242.754 35.3675 242.684 35.4467C242.615 35.5259 242.511 35.5655 242.372 35.5655H241.986C241.858 35.5655 241.759 35.5259 241.689 35.4467C241.62 35.3675 241.556 35.2783 241.496 35.1793L239.149 30.8272L239.61 30.7827V36.4716C239.61 36.5706 239.58 36.6498 239.521 36.7092C239.461 36.7686 239.382 36.7983 239.283 36.7983H238.555ZM250.136 36.9469C249.64 36.9469 249.19 36.8479 248.784 36.6498C248.378 36.4518 248.051 36.1844 247.804 35.8477C247.556 35.511 247.432 35.1298 247.432 34.704C247.432 34.0207 247.709 33.4761 248.264 33.0701C248.819 32.6641 249.541 32.3968 250.433 32.268L252.646 31.9561V31.5253C252.646 31.05 252.507 30.6787 252.23 30.4113C251.963 30.144 251.522 30.0103 250.908 30.0103C250.462 30.0103 250.101 30.0994 249.824 30.2777C249.556 30.4559 249.368 30.6837 249.259 30.9609C249.2 31.1095 249.096 31.1837 248.947 31.1837H248.279C248.17 31.1837 248.086 31.154 248.026 31.0946C247.977 31.0253 247.952 30.9461 247.952 30.8569C247.952 30.7084 248.007 30.5252 248.115 30.3074C248.234 30.0895 248.413 29.8766 248.65 29.6687C248.888 29.4607 249.19 29.2874 249.556 29.1488C249.933 29.0003 250.388 28.926 250.923 28.926C251.517 28.926 252.017 29.0052 252.423 29.1636C252.829 29.3122 253.146 29.5152 253.374 29.7726C253.611 30.0301 253.78 30.3222 253.879 30.649C253.988 30.9758 254.042 31.3075 254.042 31.6442V36.4567C254.042 36.5557 254.007 36.6399 253.938 36.7092C253.879 36.7686 253.799 36.7983 253.7 36.7983H253.017C252.908 36.7983 252.824 36.7686 252.765 36.7092C252.705 36.6399 252.675 36.5557 252.675 36.4567V35.818C252.547 35.9963 252.373 36.1745 252.156 36.3527C251.938 36.5211 251.665 36.6647 251.339 36.7835C251.012 36.8924 250.611 36.9469 250.136 36.9469ZM250.447 35.8329C250.853 35.8329 251.225 35.7487 251.561 35.5804C251.898 35.4021 252.161 35.1298 252.349 34.7634C252.547 34.397 252.646 33.9366 252.646 33.382V32.9661L250.923 33.2186C250.22 33.3177 249.69 33.486 249.333 33.7237C248.977 33.9514 248.799 34.2435 248.799 34.6C248.799 34.8773 248.878 35.11 249.036 35.2981C249.205 35.4764 249.413 35.6101 249.66 35.6992C249.918 35.7883 250.18 35.8329 250.447 35.8329Z" fill="#8F8F8F"/>
<path d="M32.6258 4.46725L31.3146 7.39407H35.2482V5.46853H38.4105V8.70344L40.8787 7.39407L42.8069 5.46853L44.5809 8.70344H47.2033V11.5532L48.3602 13.9409L47.2033 14.9422L44.5809 16.0975L43.8096 22.3363L45.9692 25.4171L43.8096 27.4197L42.8069 30.1925L38.4105 27.4197L33.937 31.0397L32.6258 32.8112H30.5433L29.2321 37.4325L27.6895 37.5865L26.3783 37.4325V36.4312L24.9128 34.9678L24.2958 37.4325L25.4527 38.3567V39.8202H22.2904L21.8277 40.9755L19.5138 41.6687V44.2874L16.7371 45.5968L15.5802 44.2874H13.2663L9.94971 38.3567L6.86453 38.5108L7.86721 35.584V33.8125L12.4179 31.964L11.6466 30.1925L12.4179 28.575L6.86453 24.4929L7.86721 18.5622L1.92824 12.7856V10.552V8.70344V7.39407L0 5.46853L1.92824 4.46725V3.46597L4.39638 1.69447L5.55333 0.693194H10.6439L11.6466 0H13.2663L16.7371 1.69447L22.2904 0.693194V1.69447L25.4527 0L28.3837 0.693194L31.3146 1.69447L32.6258 4.46725Z" fill="#9AC731"/>
<path d="M32.515 43.4947L31.7854 44.7744L31.268 43.3951L24.2832 24.7727L24.0073 24.037L23.7382 24.3061L23.2793 24.765V25.4064V26.7763V27.42L23.7389 27.8797L24.7075 28.8482L25.196 29.3367L24.7075 29.8252L22.9393 31.5934L22.4508 32.0819L21.9623 31.5934L20.9938 30.6248L20.5053 30.1363L20.9938 29.6478L22.7619 27.8797L23.1744 27.4672H22.5884H20.0875H19.3967V26.7763V25.4064V24.7155H20.0875H22.5884H23.1706L22.7611 24.3061L20.993 22.538L20.5045 22.0495L20.993 21.561L21.9615 20.5925L22.4501 20.1039L22.9386 20.5925L24.7067 22.3606L25.1156 22.7694V22.1884V19.6875V18.9966H25.8064H27.1763H27.8672V19.6875V22.1884V22.7728L28.2802 22.3598L30.0484 20.5916L30.5369 20.1031L31.0254 20.5916L31.9939 21.5602L32.4824 22.0487L31.9939 22.5372L30.2258 24.3053L29.7373 24.7939L29.2487 24.3053L28.2802 23.3368L27.8227 22.8793H27.1763H25.8064H25.165L24.7067 23.3376L24.437 23.6073L25.1727 23.8832L43.7951 30.868L45.1744 31.3854L43.8947 32.115L39.5762 34.5774L43.6136 38.6148L44.1021 39.1033L43.6136 39.5918L39.9918 43.2136L39.5033 43.7021L39.0148 43.2136L34.9774 39.1762L32.515 43.4947Z" fill="white" stroke="#9AC731" stroke-width="1.38172"/>
</svg>
