<svg width="287" height="52" viewBox="0 0 287 52" fill="none" xmlns="http://www.w3.org/2000/svg">
<path d="M70.6211 25.5654C69.1045 25.5654 67.7857 25.3181 66.6647 24.8236C65.5438 24.329 64.6701 23.5872 64.0436 22.5981C63.4172 21.5925 63.071 20.3397 63.0051 18.8396C62.9886 18.1307 62.9804 17.4219 62.9804 16.713C62.9804 16.0042 62.9886 15.2871 63.0051 14.5618C63.071 13.0781 63.4172 11.8335 64.0436 10.8279C64.6865 9.80587 65.5685 9.03933 66.6894 8.5283C67.8104 8.01727 69.121 7.76175 70.6211 7.76175C72.1047 7.76175 73.407 8.01727 74.528 8.5283C75.6654 9.03933 76.5556 9.80587 77.1985 10.8279C77.8414 11.8335 78.1876 13.0781 78.2371 14.5618C78.2701 15.2871 78.2865 16.0042 78.2865 16.713C78.2865 17.4219 78.2701 18.1307 78.2371 18.8396C78.1711 20.3397 77.825 21.5925 77.1985 22.5981C76.5721 23.5872 75.6984 24.329 74.5774 24.8236C73.4565 25.3181 72.1377 25.5654 70.6211 25.5654ZM70.6211 22.0047C71.4948 22.0047 72.2036 21.7409 72.7476 21.2134C73.3081 20.6859 73.6048 19.8451 73.6378 18.6912C73.6708 17.9659 73.6873 17.2818 73.6873 16.6388C73.6873 15.9959 73.6708 15.3283 73.6378 14.6359C73.6048 13.8611 73.4565 13.2347 73.1927 12.7567C72.9454 12.2621 72.5993 11.8994 72.1542 11.6687C71.7091 11.4379 71.1981 11.3225 70.6211 11.3225C70.0606 11.3225 69.5578 11.4379 69.1127 11.6687C68.6676 11.8994 68.3132 12.2621 68.0494 12.7567C67.7857 13.2347 67.6373 13.8611 67.6044 14.6359C67.5879 15.3283 67.5796 15.9959 67.5796 16.6388C67.5796 17.2818 67.5879 17.9659 67.6044 18.6912C67.6538 19.8451 67.9505 20.6859 68.4945 21.2134C69.0385 21.7409 69.7474 22.0047 70.6211 22.0047ZM81.0291 25.3181C80.8478 25.3181 80.6994 25.2604 80.5841 25.145C80.4687 25.0296 80.411 24.8813 80.411 24.6999V8.62721C80.411 8.44587 80.4687 8.29751 80.5841 8.18212C80.6994 8.06672 80.8478 8.00902 81.0291 8.00902H92.8735C93.0548 8.00902 93.2032 8.06672 93.3186 8.18212C93.4505 8.29751 93.5164 8.44587 93.5164 8.62721V11.0999C93.5164 11.2813 93.4505 11.4379 93.3186 11.5698C93.2032 11.6851 93.0548 11.7428 92.8735 11.7428H84.8371V14.6854H88.299C90.2771 14.6854 91.835 15.1552 92.9724 16.0948C94.1099 17.0345 94.6786 18.3121 94.6786 19.9276C94.6786 20.6859 94.5385 21.3947 94.2582 22.0541C93.978 22.697 93.5659 23.2658 93.0219 23.7603C92.4944 24.2384 91.835 24.6175 91.0437 24.8978C90.2524 25.178 89.3375 25.3181 88.299 25.3181H81.0291ZM84.8371 22.1036H87.9033C88.3814 22.1036 88.777 22.0047 89.0902 21.8068C89.4199 21.5925 89.6672 21.3205 89.8321 20.9908C89.9969 20.6447 90.0793 20.282 90.0793 19.9028C90.0793 19.3259 89.8897 18.8313 89.5106 18.4192C89.1479 18.0071 88.6122 17.801 87.9033 17.801H84.8371V22.1036ZM107.518 25.3181C107.336 25.3181 107.188 25.2604 107.073 25.145C106.957 25.0296 106.899 24.8813 106.899 24.6999V11.9654H102.3V14.2156C102.3 16.2102 102.201 17.9082 102.003 19.3094C101.822 20.6941 101.484 21.8316 100.99 22.7218C100.512 23.5954 99.8275 24.2384 98.9373 24.6505C98.0636 25.0626 96.9344 25.2851 95.5497 25.3181C95.3848 25.3181 95.2364 25.2604 95.1046 25.145C94.9727 25.0131 94.9067 24.8565 94.9067 24.6752V22.0788C94.9067 21.7162 95.1128 21.5101 95.5249 21.4607C95.9865 21.3782 96.3739 21.1392 96.6871 20.7436C97.0003 20.3479 97.2558 19.8204 97.4537 19.161C97.6515 18.4851 97.7916 17.6856 97.874 16.7625C97.9564 15.8228 97.9977 14.7843 97.9977 13.6468V8.62721C97.9977 8.44587 98.0553 8.29751 98.1707 8.18212C98.3026 8.06672 98.4592 8.00902 98.6406 8.00902H110.707C110.889 8.00902 111.037 8.06672 111.153 8.18212C111.268 8.29751 111.326 8.44587 111.326 8.62721V24.6999C111.326 24.8813 111.268 25.0296 111.153 25.145C111.037 25.2604 110.889 25.3181 110.707 25.3181H107.518ZM113.049 25.3181C112.917 25.3181 112.794 25.2687 112.678 25.1698C112.579 25.0544 112.53 24.9307 112.53 24.7988C112.53 24.7164 112.538 24.6422 112.554 24.5763L118.365 8.70139C118.415 8.52005 118.514 8.36345 118.662 8.23157C118.827 8.08321 119.05 8.00902 119.33 8.00902H122.989C123.27 8.00902 123.484 8.08321 123.632 8.23157C123.797 8.36345 123.904 8.52005 123.954 8.70139L129.74 24.5763C129.773 24.6422 129.789 24.7164 129.789 24.7988C129.789 24.9307 129.732 25.0544 129.616 25.1698C129.517 25.2687 129.394 25.3181 129.245 25.3181H126.204C125.957 25.3181 125.767 25.2604 125.635 25.145C125.52 25.0131 125.446 24.8978 125.413 24.7988L124.448 22.2767H117.846L116.906 24.7988C116.874 24.8978 116.799 25.0131 116.684 25.145C116.569 25.2604 116.371 25.3181 116.09 25.3181H113.049ZM118.86 18.7159H123.459L121.135 12.1879L118.86 18.7159ZM138.093 25.5654C136.527 25.5654 135.184 25.3099 134.063 24.7988C132.958 24.2878 132.093 23.5378 131.466 22.5487C130.856 21.5596 130.519 20.3314 130.453 18.8643C130.436 18.1884 130.428 17.4631 130.428 16.6883C130.428 15.9135 130.436 15.1717 130.453 14.4628C130.519 13.0287 130.865 11.817 131.491 10.8279C132.118 9.82236 132.991 9.06405 134.112 8.55302C135.233 8.02551 136.56 7.76175 138.093 7.76175C139.181 7.76175 140.187 7.90187 141.11 8.18212C142.033 8.44587 142.841 8.84151 143.533 9.36902C144.226 9.88005 144.761 10.5065 145.141 11.2483C145.536 11.9736 145.742 12.7979 145.759 13.721C145.775 13.8694 145.726 13.993 145.61 14.0919C145.511 14.1908 145.388 14.2403 145.239 14.2403H141.901C141.687 14.2403 141.522 14.1991 141.407 14.1167C141.291 14.0178 141.192 13.8447 141.11 13.5974C140.879 12.7237 140.5 12.1302 139.973 11.817C139.462 11.4873 138.827 11.3225 138.069 11.3225C137.162 11.3225 136.445 11.578 135.917 12.089C135.39 12.5836 135.101 13.4161 135.052 14.5865C135.002 15.9382 135.002 17.323 135.052 18.7407C135.101 19.9111 135.39 20.7518 135.917 21.2628C136.445 21.7574 137.162 22.0047 138.069 22.0047C138.827 22.0047 139.47 21.8398 139.997 21.5101C140.525 21.1804 140.896 20.587 141.11 19.7298C141.176 19.4825 141.267 19.3176 141.382 19.2352C141.514 19.1363 141.687 19.0868 141.901 19.0868H145.239C145.388 19.0868 145.511 19.1363 145.61 19.2352C145.726 19.3341 145.775 19.4578 145.759 19.6061C145.742 20.5293 145.536 21.3618 145.141 22.1036C144.761 22.8289 144.226 23.4553 143.533 23.9828C142.841 24.4939 142.033 24.8895 141.11 25.1698C140.187 25.4335 139.181 25.5654 138.093 25.5654ZM152.043 25.3181C151.862 25.3181 151.713 25.2604 151.598 25.145C151.483 25.0296 151.425 24.8813 151.425 24.6999V11.8912H147.024C146.842 11.8912 146.694 11.8335 146.578 11.7181C146.463 11.5862 146.405 11.4379 146.405 11.273V8.62721C146.405 8.44587 146.463 8.29751 146.578 8.18212C146.694 8.06672 146.842 8.00902 147.024 8.00902H160.327C160.508 8.00902 160.656 8.06672 160.772 8.18212C160.887 8.29751 160.945 8.44587 160.945 8.62721V11.273C160.945 11.4379 160.887 11.5862 160.772 11.7181C160.656 11.8335 160.508 11.8912 160.327 11.8912H155.925V24.6999C155.925 24.8813 155.868 25.0296 155.752 25.145C155.637 25.2604 155.488 25.3181 155.307 25.3181H152.043ZM163.069 25.3181C162.887 25.3181 162.739 25.2604 162.624 25.145C162.508 25.0296 162.45 24.8813 162.45 24.6999V8.62721C162.45 8.44587 162.508 8.29751 162.624 8.18212C162.739 8.06672 162.887 8.00902 163.069 8.00902H166.258C166.44 8.00902 166.588 8.06672 166.704 8.18212C166.819 8.29751 166.877 8.44587 166.877 8.62721V13.9436H169.498C171.608 13.9436 173.248 14.4134 174.418 15.353C175.589 16.2762 176.174 17.6774 176.174 19.5567C176.174 20.6941 175.919 21.6997 175.408 22.5734C174.897 23.4471 174.138 24.123 173.133 24.601C172.144 25.0791 170.932 25.3181 169.498 25.3181H163.069ZM166.877 21.881H169.399C170.108 21.881 170.643 21.6667 171.006 21.2381C171.385 20.793 171.575 20.2325 171.575 19.5567C171.575 18.8148 171.385 18.2626 171.006 17.8999C170.627 17.5373 170.091 17.3559 169.399 17.3559H166.877V21.881Z" fill="#414141"/>
<path d="M188.96 25.5654C187.708 25.5654 186.628 25.4253 185.721 25.145C184.831 24.8648 184.097 24.4939 183.52 24.0323C182.943 23.5707 182.507 23.0597 182.21 22.4992C181.93 21.9222 181.757 21.3535 181.691 20.793C181.674 20.6447 181.724 20.521 181.839 20.4221C181.954 20.3232 182.086 20.2738 182.235 20.2738H185.4C185.597 20.2738 185.746 20.3067 185.845 20.3727C185.96 20.4386 186.067 20.554 186.166 20.7188C186.348 21.1145 186.653 21.4359 187.081 21.6832C187.526 21.914 188.128 22.0294 188.886 22.0294C189.48 22.0294 189.991 21.9552 190.419 21.8068C190.848 21.6585 191.178 21.4442 191.408 21.1639C191.656 20.8672 191.779 20.521 191.779 20.1254C191.779 19.4825 191.54 18.9962 191.062 18.6665C190.584 18.3368 189.908 18.1719 189.035 18.1719H187.229C187.048 18.1719 186.9 18.1142 186.784 17.9988C186.669 17.867 186.611 17.7104 186.611 17.529V15.5508C186.611 15.3695 186.669 15.2129 186.784 15.081C186.9 14.9491 187.048 14.8832 187.229 14.8832H189.01C189.686 14.8832 190.238 14.7431 190.667 14.4628C191.095 14.1661 191.309 13.7128 191.309 13.1028C191.309 12.7567 191.211 12.4517 191.013 12.1879C190.831 11.9077 190.559 11.6934 190.197 11.545C189.851 11.3967 189.422 11.3225 188.911 11.3225C188.186 11.3225 187.6 11.4379 187.155 11.6687C186.727 11.8994 186.455 12.2291 186.339 12.6578C186.257 12.8061 186.166 12.9215 186.067 13.0039C185.968 13.0699 185.828 13.1028 185.647 13.1028H182.383C182.235 13.1028 182.103 13.0534 181.987 12.9545C181.888 12.8391 181.847 12.7072 181.864 12.5588C181.913 11.9819 182.078 11.4049 182.358 10.8279C182.655 10.251 183.075 9.73993 183.619 9.29484C184.18 8.83327 184.905 8.46236 185.795 8.18212C186.685 7.90187 187.757 7.76175 189.01 7.76175C190.428 7.76175 191.639 7.99254 192.645 8.45411C193.667 8.89921 194.458 9.49266 195.019 10.2345C195.579 10.9763 195.859 11.7923 195.859 12.6825C195.859 13.0946 195.802 13.5232 195.686 13.9683C195.571 14.3969 195.373 14.809 195.093 15.2047C194.829 15.5838 194.433 15.9218 193.906 16.2185C194.532 16.5152 195.019 16.8861 195.365 17.3312C195.727 17.7763 195.983 18.2544 196.131 18.7654C196.296 19.2764 196.379 19.7874 196.379 20.2985C196.379 21.3535 196.074 22.2767 195.464 23.0679C194.87 23.8427 194.021 24.4527 192.917 24.8978C191.812 25.3428 190.493 25.5654 188.96 25.5654ZM198.972 25.3181C198.791 25.3181 198.643 25.2604 198.527 25.145C198.412 25.0296 198.354 24.8813 198.354 24.6999V8.62721C198.354 8.44587 198.412 8.29751 198.527 8.18212C198.643 8.06672 198.791 8.00902 198.972 8.00902H202.162C202.344 8.00902 202.492 8.06672 202.607 8.18212C202.723 8.29751 202.78 8.44587 202.78 8.62721V14.5865H208.888V8.62721C208.888 8.44587 208.946 8.29751 209.061 8.18212C209.177 8.06672 209.325 8.00902 209.506 8.00902H212.696C212.877 8.00902 213.026 8.06672 213.141 8.18212C213.257 8.29751 213.314 8.44587 213.314 8.62721V24.6999C213.314 24.8813 213.257 25.0296 213.141 25.145C213.026 25.2604 212.877 25.3181 212.696 25.3181H209.506C209.325 25.3181 209.177 25.2604 209.061 25.145C208.946 25.0296 208.888 24.8813 208.888 24.6999V18.5428H202.78V24.6999C202.78 24.8813 202.723 25.0296 202.607 25.145C202.492 25.2604 202.344 25.3181 202.162 25.3181H198.972ZM215.048 25.3181C214.916 25.3181 214.793 25.2687 214.677 25.1698C214.578 25.0544 214.529 24.9307 214.529 24.7988C214.529 24.7164 214.537 24.6422 214.554 24.5763L220.364 8.70139C220.414 8.52005 220.513 8.36345 220.661 8.23157C220.826 8.08321 221.049 8.00902 221.329 8.00902H224.988C225.269 8.00902 225.483 8.08321 225.631 8.23157C225.796 8.36345 225.903 8.52005 225.953 8.70139L231.739 24.5763C231.772 24.6422 231.788 24.7164 231.788 24.7988C231.788 24.9307 231.731 25.0544 231.615 25.1698C231.516 25.2687 231.393 25.3181 231.244 25.3181H228.203C227.956 25.3181 227.766 25.2604 227.634 25.145C227.519 25.0131 227.445 24.8978 227.412 24.7988L226.447 22.2767H219.845L218.906 24.7988C218.873 24.8978 218.798 25.0131 218.683 25.145C218.568 25.2604 218.37 25.3181 218.09 25.3181H215.048ZM220.859 18.7159H225.458L223.134 12.1879L220.859 18.7159ZM233.614 25.3181C233.432 25.3181 233.284 25.2604 233.169 25.145C233.053 25.0296 232.996 24.8813 232.996 24.6999V8.62721C232.996 8.44587 233.053 8.29751 233.169 8.18212C233.284 8.06672 233.432 8.00902 233.614 8.00902H236.804C236.985 8.00902 237.133 8.06672 237.249 8.18212C237.364 8.29751 237.422 8.44587 237.422 8.62721V14.5865H243.529V8.62721C243.529 8.44587 243.587 8.29751 243.703 8.18212C243.818 8.06672 243.966 8.00902 244.148 8.00902H247.337C247.519 8.00902 247.667 8.06672 247.783 8.18212C247.898 8.29751 247.956 8.44587 247.956 8.62721V24.6999C247.956 24.8813 247.898 25.0296 247.783 25.145C247.667 25.2604 247.519 25.3181 247.337 25.3181H244.148C243.966 25.3181 243.818 25.2604 243.703 25.145C243.587 25.0296 243.529 24.8813 243.529 24.6999V18.5428H237.422V24.6999C237.422 24.8813 237.364 25.0296 237.249 25.145C237.133 25.2604 236.985 25.3181 236.804 25.3181H233.614ZM251.297 25.3181C251.115 25.3181 250.967 25.2604 250.852 25.145C250.736 25.0131 250.679 24.8648 250.679 24.6999V8.62721C250.679 8.44587 250.736 8.29751 250.852 8.18212C250.983 8.06672 251.132 8.00902 251.297 8.00902H254.487C254.668 8.00902 254.816 8.06672 254.932 8.18212C255.047 8.29751 255.105 8.44587 255.105 8.62721V18.5923L262.152 8.47884C262.234 8.34696 262.342 8.23981 262.473 8.15739C262.605 8.05848 262.778 8.00902 262.993 8.00902H265.861C266.026 8.00902 266.166 8.06672 266.281 8.18212C266.413 8.29751 266.479 8.44587 266.479 8.62721V24.6999C266.479 24.8813 266.413 25.0296 266.281 25.145C266.166 25.2604 266.026 25.3181 265.861 25.3181H262.671C262.49 25.3181 262.333 25.2604 262.201 25.145C262.086 25.0296 262.028 24.8813 262.028 24.6999V15.1058L255.006 24.8483C254.923 24.9637 254.816 25.0708 254.684 25.1698C254.569 25.2687 254.396 25.3181 254.165 25.3181H251.297ZM269.801 25.3181C269.619 25.3181 269.471 25.2604 269.356 25.145C269.24 25.0131 269.182 24.8648 269.182 24.6999V8.62721C269.182 8.44587 269.24 8.29751 269.356 8.18212C269.487 8.06672 269.636 8.00902 269.801 8.00902H272.99C273.172 8.00902 273.32 8.06672 273.436 8.18212C273.551 8.29751 273.609 8.44587 273.609 8.62721V18.5923L280.656 8.47884C280.738 8.34696 280.845 8.23981 280.977 8.15739C281.109 8.05848 281.282 8.00902 281.497 8.00902H284.365C284.53 8.00902 284.67 8.06672 284.785 8.18212C284.917 8.29751 284.983 8.44587 284.983 8.62721V24.6999C284.983 24.8813 284.917 25.0296 284.785 25.145C284.67 25.2604 284.53 25.3181 284.365 25.3181H281.175C280.994 25.3181 280.837 25.2604 280.705 25.145C280.59 25.0296 280.532 24.8813 280.532 24.6999V15.1058L273.51 24.8483C273.427 24.9637 273.32 25.0708 273.188 25.1698C273.073 25.2687 272.9 25.3181 272.669 25.3181H269.801ZM277.169 6.99521C276.114 6.99521 275.265 6.8386 274.622 6.52539C273.98 6.19569 273.51 5.76708 273.213 5.23957C272.916 4.69557 272.768 4.10211 272.768 3.45921C272.768 3.32733 272.809 3.22018 272.892 3.13775C272.974 3.03884 273.089 2.98939 273.238 2.98939H275.216C275.364 2.98939 275.48 3.03884 275.562 3.13775C275.644 3.22018 275.686 3.32733 275.686 3.45921C275.686 3.67351 275.727 3.88781 275.809 4.10211C275.892 4.29993 276.04 4.46478 276.254 4.59666C276.469 4.71205 276.774 4.76975 277.169 4.76975C277.565 4.76975 277.862 4.71205 278.06 4.59666C278.274 4.46478 278.422 4.29993 278.505 4.10211C278.587 3.88781 278.628 3.67351 278.628 3.45921C278.628 3.32733 278.669 3.22018 278.752 3.13775C278.834 3.03884 278.95 2.98939 279.098 2.98939H281.076C281.225 2.98939 281.34 3.03884 281.422 3.13775C281.505 3.22018 281.546 3.32733 281.546 3.45921C281.546 4.10211 281.398 4.69557 281.101 5.23957C280.821 5.76708 280.359 6.19569 279.716 6.52539C279.073 6.8386 278.224 6.99521 277.169 6.99521Z" fill="#9AC731"/>
<path d="M68.1317 41.6661C67.2899 41.6661 66.5866 41.5055 66.0218 41.1843C65.4569 40.8631 65.025 40.4201 64.7259 39.8552C64.4269 39.2793 64.2607 38.6258 64.2275 37.8948C64.2164 37.7066 64.2109 37.4684 64.2109 37.1805C64.2109 36.8814 64.2164 36.6433 64.2275 36.4661C64.2607 35.724 64.4269 35.0705 64.7259 34.5057C65.036 33.9408 65.4735 33.4978 66.0384 33.1766C66.6032 32.8554 67.301 32.6948 68.1317 32.6948C68.9624 32.6948 69.6602 32.8554 70.225 33.1766C70.7899 33.4978 71.2218 33.9408 71.5209 34.5057C71.831 35.0705 72.0027 35.724 72.0359 36.4661C72.047 36.6433 72.0525 36.8814 72.0525 37.1805C72.0525 37.4684 72.047 37.7066 72.0359 37.8948C72.0027 38.6258 71.8365 39.2793 71.5375 39.8552C71.2385 40.4201 70.8065 40.8631 70.2416 41.1843C69.6768 41.5055 68.9735 41.6661 68.1317 41.6661ZM68.1317 40.3869C68.8184 40.3869 69.3666 40.1709 69.7765 39.739C70.1863 39.2959 70.4078 38.6535 70.441 37.8118C70.4521 37.6456 70.4576 37.4352 70.4576 37.1805C70.4576 36.9257 70.4521 36.7153 70.441 36.5491C70.4078 35.7074 70.1863 35.0705 69.7765 34.6386C69.3666 34.1955 68.8184 33.974 68.1317 33.974C67.445 33.974 66.8912 34.1955 66.4703 34.6386C66.0605 35.0705 65.8446 35.7074 65.8224 36.5491C65.8113 36.7153 65.8058 36.9257 65.8058 37.1805C65.8058 37.4352 65.8113 37.6456 65.8224 37.8118C65.8446 38.6535 66.0605 39.2959 66.4703 39.739C66.8912 40.1709 67.445 40.3869 68.1317 40.3869ZM77.3725 41.6661C76.5197 41.6661 75.8053 41.5055 75.2294 41.1843C74.6645 40.8521 74.2325 40.3869 73.9335 39.7888C73.6455 39.1796 73.4905 38.4763 73.4683 37.6789C73.4572 37.3466 73.4517 37.0143 73.4517 36.682C73.4517 36.3498 73.4572 36.0175 73.4683 35.6852C73.4683 34.6773 73.5514 33.8411 73.7175 33.1766C73.8837 32.512 74.1329 31.9693 74.4651 31.5484C74.8085 31.1165 75.2404 30.7621 75.761 30.4852C76.2816 30.2083 76.8963 29.9701 77.6051 29.7708C78.314 29.5603 79.1225 29.3388 80.0307 29.1062C80.1304 29.0841 80.2245 29.1007 80.3131 29.1561C80.4128 29.2114 80.4682 29.289 80.4793 29.3887L80.6122 30.0698C80.6343 30.1695 80.6177 30.2581 80.5623 30.3356C80.518 30.4132 80.446 30.463 80.3464 30.4852C79.5157 30.6956 78.7902 30.8783 78.17 31.0334C77.5497 31.1885 77.0292 31.3712 76.6083 31.5817C76.1874 31.781 75.8496 32.0413 75.5949 32.3625C75.3401 32.6837 75.1629 33.1101 75.0632 33.6417C74.9746 34.1734 74.9469 34.8545 74.9802 35.6852L74.6147 35.5357C74.67 35.1259 74.8417 34.7549 75.1297 34.4226C75.4287 34.0792 75.7998 33.8023 76.2428 33.5919C76.6858 33.3815 77.1565 33.2762 77.6549 33.2762C78.4192 33.2762 79.0616 33.4368 79.5821 33.758C80.1138 34.0792 80.518 34.5167 80.7949 35.0705C81.0829 35.6243 81.2435 36.2612 81.2767 36.9811C81.2989 37.3577 81.2989 37.6844 81.2767 37.9613C81.2435 38.6812 81.0774 39.3236 80.7783 39.8885C80.4793 40.4423 80.0473 40.8798 79.4824 41.201C78.9176 41.5111 78.2143 41.6661 77.3725 41.6661ZM77.3725 40.4367C78.0703 40.4367 78.6241 40.2207 79.0339 39.7888C79.4437 39.3568 79.6597 38.7255 79.6818 37.8948C79.6929 37.7841 79.6984 37.6567 79.6984 37.5127C79.6984 37.3687 79.6929 37.2192 79.6818 37.0642C79.6597 36.2224 79.4437 35.5855 79.0339 35.1536C78.6352 34.7216 78.1312 34.5057 77.522 34.5057C76.8243 34.5057 76.2483 34.7216 75.7942 35.1536C75.3401 35.5855 75.0964 36.2224 75.0632 37.0642C75.0521 37.2192 75.0466 37.3687 75.0466 37.5127C75.0466 37.6567 75.0521 37.7841 75.0632 37.8948C75.0964 38.7255 75.318 39.3568 75.7278 39.7888C76.1376 40.2207 76.6858 40.4367 77.3725 40.4367ZM83.3543 44.6566C83.2436 44.6566 83.1494 44.6178 83.0719 44.5403C83.0054 44.4738 82.9722 44.3852 82.9722 44.2745V33.243C82.9722 33.1323 83.0054 33.0437 83.0719 32.9772C83.1494 32.8997 83.2436 32.8609 83.3543 32.8609H84.1186C84.2293 32.8609 84.3179 32.8997 84.3844 32.9772C84.4619 33.0437 84.5007 33.1323 84.5007 33.243V33.974C84.7665 33.6085 85.1209 33.3039 85.5639 33.0603C86.007 32.8166 86.5608 32.6948 87.2253 32.6948C87.8456 32.6948 88.3717 32.8 88.8036 33.0104C89.2466 33.2209 89.6066 33.5088 89.8835 33.8743C90.1715 34.2398 90.3874 34.6552 90.5314 35.1204C90.6754 35.5855 90.7529 36.084 90.764 36.6156C90.7751 36.7928 90.7806 36.9811 90.7806 37.1805C90.7806 37.3798 90.7751 37.5681 90.764 37.7453C90.7529 38.2659 90.6754 38.7643 90.5314 39.2405C90.3874 39.7057 90.1715 40.1211 89.8835 40.4866C89.6066 40.841 89.2466 41.129 88.8036 41.3505C88.3717 41.5609 87.8456 41.6661 87.2253 41.6661C86.5829 41.6661 86.0402 41.5498 85.5972 41.3172C85.1652 41.0736 84.8108 40.7745 84.5339 40.4201V44.2745C84.5339 44.3852 84.5007 44.4738 84.4342 44.5403C84.3678 44.6178 84.2736 44.6566 84.1518 44.6566H83.3543ZM86.8764 40.3204C87.4524 40.3204 87.9009 40.1986 88.2221 39.9549C88.5544 39.7002 88.7925 39.3735 88.9365 38.9747C89.0805 38.5649 89.1636 38.1274 89.1857 37.6622C89.1968 37.3411 89.1968 37.0199 89.1857 36.6987C89.1636 36.2335 89.0805 35.8015 88.9365 35.4028C88.7925 34.993 88.5544 34.6663 88.2221 34.4226C87.9009 34.1678 87.4524 34.0405 86.8764 34.0405C86.3337 34.0405 85.8907 34.1678 85.5473 34.4226C85.2151 34.6773 84.9659 35.0041 84.7997 35.4028C84.6447 35.7904 84.5561 36.1892 84.5339 36.599C84.5228 36.7762 84.5173 36.9866 84.5173 37.2303C84.5173 37.474 84.5228 37.6899 84.5339 37.8782C84.545 38.2659 84.6336 38.648 84.7997 39.0246C84.9769 39.4011 85.2372 39.7113 85.5806 39.9549C85.9239 40.1986 86.3559 40.3204 86.8764 40.3204ZM94.846 41.6661C94.2922 41.6661 93.7883 41.5554 93.3342 41.3339C92.8801 41.1123 92.5146 40.8133 92.2377 40.4367C91.9608 40.0602 91.8224 39.6337 91.8224 39.1575C91.8224 38.3932 92.1325 37.7841 92.7527 37.33C93.373 36.8759 94.1815 36.5768 95.1783 36.4328L97.6537 36.084V35.6022C97.6537 35.0705 97.4987 34.6552 97.1886 34.3561C96.8895 34.0571 96.3966 33.9076 95.7099 33.9076C95.2115 33.9076 94.8073 34.0072 94.4972 34.2066C94.1981 34.406 93.9877 34.6607 93.8658 34.9708C93.7994 35.137 93.6831 35.22 93.5169 35.22H92.7693C92.6475 35.22 92.5534 35.1868 92.4869 35.1204C92.4315 35.0428 92.4038 34.9542 92.4038 34.8545C92.4038 34.6884 92.4647 34.4835 92.5866 34.2398C92.7195 33.9962 92.9189 33.758 93.1847 33.5255C93.4505 33.2929 93.7883 33.099 94.1981 32.944C94.619 32.7778 95.1285 32.6948 95.7266 32.6948C96.3911 32.6948 96.9504 32.7834 97.4045 32.9606C97.8586 33.1267 98.2131 33.3538 98.4678 33.6417C98.7336 33.9297 98.9219 34.2565 99.0327 34.622C99.1545 34.9875 99.2154 35.3585 99.2154 35.7351V41.1179C99.2154 41.2286 99.1767 41.3228 99.0991 41.4003C99.0327 41.4668 98.9441 41.5 98.8333 41.5H98.0691C97.9472 41.5 97.8531 41.4668 97.7867 41.4003C97.7202 41.3228 97.687 41.2286 97.687 41.1179V40.4035C97.543 40.6029 97.3492 40.8022 97.1055 41.0016C96.8618 41.1899 96.5572 41.3505 96.1917 41.4834C95.8262 41.6052 95.3777 41.6661 94.846 41.6661ZM95.1949 40.4201C95.649 40.4201 96.0644 40.326 96.4409 40.1377C96.8175 39.9383 97.111 39.6337 97.3215 39.2239C97.543 38.8141 97.6537 38.2991 97.6537 37.6789V37.2137L95.7266 37.4961C94.9402 37.6069 94.3476 37.7952 93.9489 38.061C93.5502 38.3157 93.3508 38.6425 93.3508 39.0412C93.3508 39.3513 93.4394 39.6116 93.6166 39.822C93.8049 40.0214 94.0375 40.1709 94.3144 40.2706C94.6024 40.3703 94.8959 40.4201 95.1949 40.4201ZM104.195 41.6661C103.542 41.6661 102.988 41.5886 102.534 41.4335C102.091 41.2674 101.731 41.0625 101.454 40.8188C101.188 40.5641 100.995 40.3038 100.873 40.038C100.751 39.7611 100.684 39.5064 100.673 39.2738C100.673 39.1741 100.707 39.0966 100.773 39.0412C100.84 38.9747 100.917 38.9415 101.006 38.9415H101.787C101.886 38.9415 101.969 38.9692 102.036 39.0246C102.102 39.0689 102.152 39.1519 102.185 39.2738C102.318 39.6947 102.573 39.9882 102.949 40.1543C103.326 40.3204 103.786 40.4035 104.328 40.4035C104.683 40.4035 105.01 40.3592 105.309 40.2706C105.608 40.1709 105.84 40.0158 106.006 39.8054C106.184 39.595 106.272 39.3347 106.272 39.0246C106.272 38.5705 106.139 38.2271 105.873 37.9945C105.619 37.7619 105.22 37.6456 104.677 37.6456H103.764C103.653 37.6456 103.564 37.6124 103.498 37.546C103.431 37.4795 103.398 37.3909 103.398 37.2801V36.8316C103.398 36.7319 103.431 36.6488 103.498 36.5824C103.564 36.5048 103.653 36.4661 103.764 36.4661H104.578C105.032 36.4661 105.381 36.3775 105.624 36.2003C105.868 36.023 105.99 35.7406 105.99 35.353C105.99 35.1204 105.934 34.8988 105.824 34.6884C105.713 34.478 105.525 34.3063 105.259 34.1734C105.004 34.0294 104.65 33.9574 104.195 33.9574C103.553 33.9574 103.099 34.0682 102.833 34.2897C102.578 34.5001 102.396 34.8158 102.285 35.2367C102.241 35.3585 102.185 35.4416 102.119 35.4859C102.063 35.5302 101.98 35.5523 101.87 35.5523H101.122C101.022 35.5523 100.939 35.5246 100.873 35.4693C100.806 35.4139 100.773 35.3363 100.773 35.2367C100.784 34.9044 100.856 34.5887 100.989 34.2897C101.133 33.9906 101.343 33.7193 101.62 33.4756C101.908 33.2319 102.263 33.0437 102.684 32.9107C103.116 32.7668 103.62 32.6948 104.195 32.6948C105.026 32.6948 105.68 32.8221 106.156 33.0769C106.643 33.3316 106.987 33.6473 107.186 34.0239C107.396 34.3894 107.502 34.7549 107.502 35.1204C107.502 35.5523 107.43 35.9123 107.286 36.2003C107.153 36.4882 106.887 36.7319 106.488 36.9312C106.987 37.1195 107.33 37.402 107.518 37.7785C107.707 38.1551 107.806 38.5926 107.817 39.091C107.828 39.667 107.673 40.1432 107.352 40.5198C107.042 40.8964 106.616 41.1843 106.073 41.3837C105.53 41.572 104.904 41.6661 104.195 41.6661ZM112.813 41.6661C111.972 41.6661 111.268 41.5055 110.703 41.1843C110.138 40.8631 109.707 40.4201 109.407 39.8552C109.108 39.2793 108.942 38.6258 108.909 37.8948C108.898 37.7066 108.892 37.4684 108.892 37.1805C108.892 36.8814 108.898 36.6433 108.909 36.4661C108.942 35.724 109.108 35.0705 109.407 34.5057C109.718 33.9408 110.155 33.4978 110.72 33.1766C111.285 32.8554 111.983 32.6948 112.813 32.6948C113.644 32.6948 114.342 32.8554 114.907 33.1766C115.471 33.4978 115.903 33.9408 116.202 34.5057C116.513 35.0705 116.684 35.724 116.717 36.4661C116.729 36.6433 116.734 36.8814 116.734 37.1805C116.734 37.4684 116.729 37.7066 116.717 37.8948C116.684 38.6258 116.518 39.2793 116.219 39.8552C115.92 40.4201 115.488 40.8631 114.923 41.1843C114.358 41.5055 113.655 41.6661 112.813 41.6661ZM112.813 40.3869C113.5 40.3869 114.048 40.1709 114.458 39.739C114.868 39.2959 115.089 38.6535 115.123 37.8118C115.134 37.6456 115.139 37.4352 115.139 37.1805C115.139 36.9257 115.134 36.7153 115.123 36.5491C115.089 35.7074 114.868 35.0705 114.458 34.6386C114.048 34.1955 113.5 33.974 112.813 33.974C112.127 33.974 111.573 34.1955 111.152 34.6386C110.742 35.0705 110.526 35.7074 110.504 36.5491C110.493 36.7153 110.487 36.9257 110.487 37.1805C110.487 37.4352 110.493 37.6456 110.504 37.8118C110.526 38.6535 110.742 39.2959 111.152 39.739C111.573 40.1709 112.127 40.3869 112.813 40.3869ZM118.781 41.5C118.67 41.5 118.576 41.4668 118.499 41.4003C118.432 41.3228 118.399 41.2286 118.399 41.1179V33.243C118.399 33.1323 118.432 33.0437 118.499 32.9772C118.576 32.8997 118.67 32.8609 118.781 32.8609H122.237C123.278 32.8609 124.059 33.0713 124.579 33.4922C125.111 33.9131 125.377 34.478 125.377 35.1868C125.377 35.6852 125.283 36.0618 125.094 36.3165C124.906 36.5713 124.64 36.7873 124.297 36.9645C124.718 37.1417 125.033 37.4297 125.244 37.8284C125.465 38.216 125.576 38.6203 125.576 39.0412C125.576 39.8386 125.294 40.4478 124.729 40.8687C124.164 41.2896 123.378 41.5 122.37 41.5H118.781ZM119.928 40.2872H122.237C122.768 40.2872 123.195 40.1875 123.516 39.9882C123.848 39.7777 124.015 39.4621 124.015 39.0412C124.015 38.5982 123.865 38.277 123.566 38.0776C123.267 37.8672 122.824 37.7619 122.237 37.7619H119.928V40.2872ZM119.928 36.5325H122.137C122.669 36.5325 123.09 36.4162 123.4 36.1836C123.721 35.951 123.882 35.6243 123.882 35.2034C123.882 34.7715 123.721 34.478 123.4 34.3229C123.09 34.1568 122.669 34.0737 122.137 34.0737H119.928V36.5325ZM129.705 41.6661C129.152 41.6661 128.648 41.5554 128.194 41.3339C127.74 41.1123 127.374 40.8133 127.097 40.4367C126.82 40.0602 126.682 39.6337 126.682 39.1575C126.682 38.3932 126.992 37.7841 127.612 37.33C128.232 36.8759 129.041 36.5768 130.038 36.4328L132.513 36.084V35.6022C132.513 35.0705 132.358 34.6552 132.048 34.3561C131.749 34.0571 131.256 33.9076 130.569 33.9076C130.071 33.9076 129.667 34.0072 129.357 34.2066C129.058 34.406 128.847 34.6607 128.725 34.9708C128.659 35.137 128.543 35.22 128.376 35.22H127.629C127.507 35.22 127.413 35.1868 127.346 35.1204C127.291 35.0428 127.263 34.9542 127.263 34.8545C127.263 34.6884 127.324 34.4835 127.446 34.2398C127.579 33.9962 127.778 33.758 128.044 33.5255C128.31 33.2929 128.648 33.099 129.058 32.944C129.478 32.7778 129.988 32.6948 130.586 32.6948C131.251 32.6948 131.81 32.7834 132.264 32.9606C132.718 33.1267 133.073 33.3538 133.327 33.6417C133.593 33.9297 133.781 34.2565 133.892 34.622C134.014 34.9875 134.075 35.3585 134.075 35.7351V41.1179C134.075 41.2286 134.036 41.3228 133.959 41.4003C133.892 41.4668 133.804 41.5 133.693 41.5H132.929C132.807 41.5 132.713 41.4668 132.646 41.4003C132.58 41.3228 132.546 41.2286 132.546 41.1179V40.4035C132.402 40.6029 132.209 40.8022 131.965 41.0016C131.721 41.1899 131.417 41.3505 131.051 41.4834C130.686 41.6052 130.237 41.6661 129.705 41.6661ZM130.054 40.4201C130.508 40.4201 130.924 40.326 131.3 40.1377C131.677 39.9383 131.97 39.6337 132.181 39.2239C132.402 38.8141 132.513 38.2991 132.513 37.6789V37.2137L130.586 37.4961C129.8 37.6069 129.207 37.7952 128.808 38.061C128.41 38.3157 128.21 38.6425 128.21 39.0412C128.21 39.3513 128.299 39.6116 128.476 39.822C128.664 40.0214 128.897 40.1709 129.174 40.2706C129.462 40.3703 129.755 40.4201 130.054 40.4201ZM138.689 41.5C138.579 41.5 138.485 41.4668 138.407 41.4003C138.341 41.3228 138.307 41.2286 138.307 41.1179V34.19H135.417C135.306 34.19 135.212 34.1568 135.134 34.0903C135.068 34.0128 135.034 33.9186 135.034 33.8079V33.243C135.034 33.1323 135.068 33.0437 135.134 32.9772C135.212 32.8997 135.306 32.8609 135.417 32.8609H142.727C142.837 32.8609 142.926 32.8997 142.992 32.9772C143.07 33.0437 143.109 33.1323 143.109 33.243V33.8079C143.109 33.9186 143.07 34.0128 142.992 34.0903C142.926 34.1568 142.837 34.19 142.727 34.19H139.836V41.1179C139.836 41.2286 139.803 41.3228 139.736 41.4003C139.67 41.4668 139.575 41.5 139.454 41.5H138.689ZM147.573 41.6661C146.432 41.6661 145.524 41.3172 144.848 40.6195C144.173 39.9106 143.802 38.947 143.735 37.7287C143.724 37.5847 143.719 37.402 143.719 37.1805C143.719 36.9479 143.724 36.7596 143.735 36.6156C143.78 35.8292 143.962 35.1425 144.284 34.5555C144.605 33.9574 145.042 33.4978 145.596 33.1766C146.161 32.8554 146.82 32.6948 147.573 32.6948C148.415 32.6948 149.118 32.872 149.683 33.2264C150.259 33.5808 150.696 34.0848 150.995 34.7383C151.295 35.3917 151.444 36.1559 151.444 37.0309V37.3134C151.444 37.4352 151.405 37.5293 151.328 37.5958C151.261 37.6622 151.173 37.6955 151.062 37.6955H145.314C145.314 37.7066 145.314 37.7287 145.314 37.7619C145.314 37.7952 145.314 37.8228 145.314 37.845C145.336 38.2991 145.435 38.7255 145.613 39.1242C145.79 39.5119 146.045 39.8276 146.377 40.0712C146.709 40.3149 147.108 40.4367 147.573 40.4367C147.972 40.4367 148.304 40.3758 148.57 40.254C148.836 40.1321 149.052 39.9992 149.218 39.8552C149.384 39.7002 149.495 39.5839 149.55 39.5064C149.65 39.3624 149.727 39.2793 149.783 39.2572C149.838 39.2239 149.927 39.2073 150.048 39.2073H150.846C150.957 39.2073 151.045 39.2405 151.112 39.307C151.189 39.3624 151.223 39.4454 151.211 39.5562C151.2 39.7223 151.112 39.9272 150.946 40.1709C150.779 40.4035 150.541 40.6361 150.231 40.8687C149.921 41.1013 149.545 41.2951 149.102 41.4502C148.658 41.5941 148.149 41.6661 147.573 41.6661ZM145.314 36.5491H149.866V36.4993C149.866 36.0009 149.772 35.5579 149.583 35.1702C149.406 34.7826 149.146 34.478 148.802 34.2565C148.459 34.0239 148.049 33.9076 147.573 33.9076C147.097 33.9076 146.687 34.0239 146.344 34.2565C146.011 34.478 145.757 34.7826 145.579 35.1702C145.402 35.5579 145.314 36.0009 145.314 36.4993V36.5491ZM152.6 41.5C152.489 41.5 152.395 41.4612 152.317 41.3837C152.24 41.3062 152.201 41.212 152.201 41.1013V40.4866C152.201 40.254 152.317 40.1321 152.55 40.1211C152.893 40.11 153.181 39.9494 153.414 39.6393C153.646 39.3181 153.824 38.8141 153.946 38.1274C154.067 37.4297 154.128 36.5104 154.128 35.3696V33.243C154.128 33.1323 154.162 33.0437 154.228 32.9772C154.306 32.8997 154.4 32.8609 154.51 32.8609H159.794C159.904 32.8609 159.993 32.8997 160.059 32.9772C160.137 33.0437 160.176 33.1323 160.176 33.243V41.1179C160.176 41.2286 160.137 41.3228 160.059 41.4003C159.993 41.4668 159.904 41.5 159.794 41.5H158.996C158.885 41.5 158.797 41.4668 158.73 41.4003C158.664 41.3228 158.631 41.2286 158.631 41.1179V34.19H155.64V35.5523C155.64 36.6156 155.579 37.5293 155.457 38.2936C155.336 39.0467 155.147 39.6614 154.893 40.1377C154.649 40.6029 154.333 40.9462 153.946 41.1677C153.569 41.3892 153.12 41.5 152.6 41.5ZM162.619 41.5C162.508 41.5 162.414 41.4668 162.337 41.4003C162.27 41.3228 162.237 41.2286 162.237 41.1179V33.243C162.237 33.1323 162.27 33.0437 162.337 32.9772C162.414 32.8997 162.508 32.8609 162.619 32.8609H163.417C163.527 32.8609 163.616 32.8997 163.682 32.9772C163.76 33.0437 163.799 33.1323 163.799 33.243V35.6852H165.659C166.789 35.6852 167.614 35.951 168.135 36.4827C168.655 37.0143 168.916 37.7342 168.916 38.6425C168.916 39.6171 168.628 40.337 168.052 40.8022C167.476 41.2674 166.612 41.5 165.46 41.5H162.619ZM163.782 40.254H165.527C166.191 40.254 166.678 40.1377 166.989 39.9051C167.299 39.6614 167.454 39.2405 167.454 38.6425C167.454 38.0665 167.304 37.6401 167.005 37.3632C166.706 37.0752 166.213 36.9312 165.527 36.9312H163.782V40.254ZM170.527 41.5C170.416 41.5 170.322 41.4668 170.244 41.4003C170.178 41.3228 170.145 41.2286 170.145 41.1179V33.243C170.145 33.1323 170.178 33.0437 170.244 32.9772C170.322 32.8997 170.416 32.8609 170.527 32.8609H171.324C171.435 32.8609 171.524 32.8997 171.59 32.9772C171.657 33.0437 171.69 33.1323 171.69 33.243V36.4328H176.225V33.243C176.225 33.1323 176.259 33.0437 176.325 32.9772C176.403 32.8997 176.497 32.8609 176.607 32.8609H177.388C177.499 32.8609 177.588 32.8997 177.654 32.9772C177.732 33.0437 177.77 33.1323 177.77 33.243V41.1179C177.77 41.2286 177.732 41.3228 177.654 41.4003C177.588 41.4668 177.499 41.5 177.388 41.5H176.607C176.497 41.5 176.403 41.4668 176.325 41.4003C176.259 41.3228 176.225 41.2286 176.225 41.1179V37.7619H171.69V41.1179C171.69 41.2286 171.657 41.3228 171.59 41.4003C171.524 41.4668 171.435 41.5 171.324 41.5H170.527ZM182.262 41.6661C181.709 41.6661 181.205 41.5554 180.75 41.3339C180.296 41.1123 179.931 40.8133 179.654 40.4367C179.377 40.0602 179.239 39.6337 179.239 39.1575C179.239 38.3932 179.549 37.7841 180.169 37.33C180.789 36.8759 181.598 36.5768 182.595 36.4328L185.07 36.084V35.6022C185.07 35.0705 184.915 34.6552 184.605 34.3561C184.306 34.0571 183.813 33.9076 183.126 33.9076C182.628 33.9076 182.224 34.0072 181.913 34.2066C181.614 34.406 181.404 34.6607 181.282 34.9708C181.216 35.137 181.099 35.22 180.933 35.22H180.186C180.064 35.22 179.97 35.1868 179.903 35.1204C179.848 35.0428 179.82 34.9542 179.82 34.8545C179.82 34.6884 179.881 34.4835 180.003 34.2398C180.136 33.9962 180.335 33.758 180.601 33.5255C180.867 33.2929 181.205 33.099 181.614 32.944C182.035 32.7778 182.545 32.6948 183.143 32.6948C183.807 32.6948 184.367 32.7834 184.821 32.9606C185.275 33.1267 185.629 33.3538 185.884 33.6417C186.15 33.9297 186.338 34.2565 186.449 34.622C186.571 34.9875 186.632 35.3585 186.632 35.7351V41.1179C186.632 41.2286 186.593 41.3228 186.515 41.4003C186.449 41.4668 186.36 41.5 186.25 41.5H185.485C185.364 41.5 185.269 41.4668 185.203 41.4003C185.136 41.3228 185.103 41.2286 185.103 41.1179V40.4035C184.959 40.6029 184.765 40.8022 184.522 41.0016C184.278 41.1899 183.974 41.3505 183.608 41.4834C183.243 41.6052 182.794 41.6661 182.262 41.6661ZM182.611 40.4201C183.065 40.4201 183.481 40.326 183.857 40.1377C184.234 39.9383 184.527 39.6337 184.738 39.2239C184.959 38.8141 185.07 38.2991 185.07 37.6789V37.2137L183.143 37.4961C182.356 37.6069 181.764 37.7952 181.365 38.061C180.966 38.3157 180.767 38.6425 180.767 39.0412C180.767 39.3513 180.856 39.6116 181.033 39.822C181.221 40.0214 181.454 40.1709 181.731 40.2706C182.019 40.3703 182.312 40.4201 182.611 40.4201ZM193.988 41.5C193.866 41.5 193.772 41.4668 193.705 41.4003C193.639 41.3228 193.605 41.2286 193.605 41.1179V38.4099H191.695V38.3268C190.654 38.3268 189.878 38.0721 189.369 37.5626C188.871 37.042 188.621 36.383 188.621 35.5855C188.621 34.6552 188.893 33.9685 189.435 33.5255C189.989 33.0824 190.82 32.8609 191.927 32.8609H194.785C194.896 32.8609 194.984 32.8997 195.051 32.9772C195.128 33.0437 195.167 33.1323 195.167 33.243V41.1179C195.167 41.2286 195.128 41.3228 195.051 41.4003C194.984 41.4668 194.896 41.5 194.785 41.5H193.988ZM188.721 41.5C188.621 41.5 188.538 41.4668 188.472 41.4003C188.405 41.3339 188.372 41.2563 188.372 41.1677C188.372 41.1234 188.378 41.0791 188.389 41.0348C188.411 40.9794 188.444 40.9241 188.488 40.8687L190.465 37.9447L192.06 38.061L189.95 41.2508C189.906 41.3062 189.845 41.3616 189.768 41.4169C189.69 41.4723 189.607 41.5 189.518 41.5H188.721ZM191.745 37.1638H193.622V34.1069H191.878C191.257 34.1069 190.798 34.2177 190.499 34.4392C190.211 34.6496 190.067 35.0318 190.067 35.5855C190.067 36.0397 190.2 36.4162 190.465 36.7153C190.742 37.0143 191.169 37.1638 191.745 37.1638ZM201.265 41.5C201.155 41.5 201.06 41.4668 200.983 41.4003C200.916 41.3228 200.883 41.2286 200.883 41.1179V33.243C200.883 33.1323 200.916 33.0437 200.983 32.9772C201.06 32.8997 201.155 32.8609 201.265 32.8609H207.861C207.972 32.8609 208.06 32.8997 208.127 32.9772C208.204 33.0437 208.243 33.1323 208.243 33.243V41.1179C208.243 41.2286 208.204 41.3228 208.127 41.4003C208.06 41.4668 207.972 41.5 207.861 41.5H207.063C206.953 41.5 206.864 41.4668 206.798 41.4003C206.731 41.3228 206.698 41.2286 206.698 41.1179V34.19H202.428V41.1179C202.428 41.2286 202.395 41.3228 202.329 41.4003C202.262 41.4668 202.174 41.5 202.063 41.5H201.265ZM209.884 41.5C209.774 41.5 209.68 41.4612 209.602 41.3837C209.524 41.3062 209.486 41.212 209.486 41.1013V40.4866C209.486 40.254 209.602 40.1321 209.835 40.1211C210.178 40.11 210.466 39.9494 210.698 39.6393C210.931 39.3181 211.108 38.8141 211.23 38.1274C211.352 37.4297 211.413 36.5104 211.413 35.3696V33.243C211.413 33.1323 211.446 33.0437 211.513 32.9772C211.59 32.8997 211.684 32.8609 211.795 32.8609H217.078C217.189 32.8609 217.277 32.8997 217.344 32.9772C217.421 33.0437 217.46 33.1323 217.46 33.243V41.1179C217.46 41.2286 217.421 41.3228 217.344 41.4003C217.277 41.4668 217.189 41.5 217.078 41.5H216.281C216.17 41.5 216.081 41.4668 216.015 41.4003C215.948 41.3228 215.915 41.2286 215.915 41.1179V34.19H212.925V35.5523C212.925 36.6156 212.864 37.5293 212.742 38.2936C212.62 39.0467 212.432 39.6614 212.177 40.1377C211.933 40.6029 211.618 40.9462 211.23 41.1677C210.854 41.3892 210.405 41.5 209.884 41.5ZM221.931 41.6661C221.377 41.6661 220.873 41.5554 220.419 41.3339C219.965 41.1123 219.599 40.8133 219.322 40.4367C219.045 40.0602 218.907 39.6337 218.907 39.1575C218.907 38.3932 219.217 37.7841 219.837 37.33C220.458 36.8759 221.266 36.5768 222.263 36.4328L224.738 36.084V35.6022C224.738 35.0705 224.583 34.6552 224.273 34.3561C223.974 34.0571 223.481 33.9076 222.795 33.9076C222.296 33.9076 221.892 34.0072 221.582 34.2066C221.283 34.406 221.072 34.6607 220.95 34.9708C220.884 35.137 220.768 35.22 220.602 35.22H219.854C219.732 35.22 219.638 35.1868 219.571 35.1204C219.516 35.0428 219.488 34.9542 219.488 34.8545C219.488 34.6884 219.549 34.4835 219.671 34.2398C219.804 33.9962 220.003 33.758 220.269 33.5255C220.535 33.2929 220.873 33.099 221.283 32.944C221.704 32.7778 222.213 32.6948 222.811 32.6948C223.476 32.6948 224.035 32.7834 224.489 32.9606C224.943 33.1267 225.298 33.3538 225.552 33.6417C225.818 33.9297 226.007 34.2565 226.117 34.622C226.239 34.9875 226.3 35.3585 226.3 35.7351V41.1179C226.3 41.2286 226.261 41.3228 226.184 41.4003C226.117 41.4668 226.029 41.5 225.918 41.5H225.154C225.032 41.5 224.938 41.4668 224.871 41.4003C224.805 41.3228 224.772 41.2286 224.772 41.1179V40.4035C224.628 40.6029 224.434 40.8022 224.19 41.0016C223.946 41.1899 223.642 41.3505 223.276 41.4834C222.911 41.6052 222.462 41.6661 221.931 41.6661ZM222.28 40.4201C222.734 40.4201 223.149 40.326 223.526 40.1377C223.902 39.9383 224.196 39.6337 224.406 39.2239C224.628 38.8141 224.738 38.2991 224.738 37.6789V37.2137L222.811 37.4961C222.025 37.6069 221.432 37.7952 221.033 38.061C220.635 38.3157 220.435 38.6425 220.435 39.0412C220.435 39.3513 220.524 39.6116 220.701 39.822C220.89 40.0214 221.122 40.1709 221.399 40.2706C221.687 40.3703 221.98 40.4201 222.28 40.4201ZM230.915 41.5C230.804 41.5 230.71 41.4668 230.632 41.4003C230.566 41.3228 230.532 41.2286 230.532 41.1179V34.19H227.642C227.531 34.19 227.437 34.1568 227.359 34.0903C227.293 34.0128 227.26 33.9186 227.26 33.8079V33.243C227.26 33.1323 227.293 33.0437 227.359 32.9772C227.437 32.8997 227.531 32.8609 227.642 32.8609H234.952C235.062 32.8609 235.151 32.8997 235.218 32.9772C235.295 33.0437 235.334 33.1323 235.334 33.243V33.8079C235.334 33.9186 235.295 34.0128 235.218 34.0903C235.151 34.1568 235.062 34.19 234.952 34.19H232.061V41.1179C232.061 41.2286 232.028 41.3228 231.961 41.4003C231.895 41.4668 231.801 41.5 231.679 41.5H230.915ZM240.695 44.6566C240.585 44.6566 240.49 44.6178 240.413 44.5403C240.346 44.4738 240.313 44.3852 240.313 44.2745V41.5C239.339 41.5 238.536 41.3394 237.904 41.0182C237.284 40.697 236.819 40.254 236.509 39.6891C236.21 39.1242 236.038 38.4819 235.994 37.7619C235.972 37.3743 235.972 36.9866 235.994 36.599C236.038 35.868 236.215 35.2256 236.525 34.6718C236.835 34.1069 237.301 33.6639 237.921 33.3427C238.552 33.0215 239.35 32.8609 240.313 32.8609V30.0864C240.313 29.9757 240.346 29.8871 240.413 29.8206C240.49 29.7431 240.585 29.7043 240.695 29.7043H241.476C241.587 29.7043 241.676 29.7431 241.742 29.8206C241.82 29.8871 241.858 29.9757 241.858 30.0864V32.8609C242.822 32.8609 243.614 33.0215 244.234 33.3427C244.865 33.6639 245.336 34.1069 245.646 34.6718C245.967 35.2256 246.145 35.868 246.178 36.599C246.2 36.9866 246.2 37.3743 246.178 37.7619C246.145 38.4819 245.973 39.1242 245.663 39.6891C245.353 40.254 244.888 40.697 244.267 41.0182C243.647 41.3394 242.844 41.5 241.858 41.5V44.2745C241.858 44.3852 241.82 44.4738 241.742 44.5403C241.676 44.6178 241.587 44.6566 241.476 44.6566H240.695ZM240.313 40.2207V34.1402C239.416 34.1402 238.74 34.3561 238.286 34.7881C237.832 35.22 237.583 35.8624 237.539 36.7153C237.528 36.8814 237.522 37.042 237.522 37.1971C237.522 37.3411 237.528 37.4906 237.539 37.6456C237.594 38.4985 237.843 39.1409 238.286 39.5728C238.74 40.0048 239.416 40.2207 240.313 40.2207ZM241.858 40.2207C242.766 40.2207 243.442 40.0048 243.885 39.5728C244.339 39.1298 244.588 38.4874 244.633 37.6456C244.644 37.4906 244.649 37.3411 244.649 37.1971C244.649 37.042 244.644 36.8814 244.633 36.7153C244.6 35.8624 244.35 35.22 243.885 34.7881C243.431 34.3561 242.755 34.1402 241.858 34.1402V40.2207ZM251.391 41.6661C250.549 41.6661 249.846 41.5055 249.281 41.1843C248.716 40.8631 248.284 40.4201 247.985 39.8552C247.686 39.2793 247.52 38.6258 247.487 37.8948C247.476 37.7066 247.47 37.4684 247.47 37.1805C247.47 36.8814 247.476 36.6433 247.487 36.4661C247.52 35.724 247.686 35.0705 247.985 34.5057C248.295 33.9408 248.733 33.4978 249.298 33.1766C249.863 32.8554 250.56 32.6948 251.391 32.6948C252.222 32.6948 252.92 32.8554 253.484 33.1766C254.049 33.4978 254.481 33.9408 254.78 34.5057C255.09 35.0705 255.262 35.724 255.295 36.4661C255.306 36.6433 255.312 36.8814 255.312 37.1805C255.312 37.4684 255.306 37.7066 255.295 37.8948C255.262 38.6258 255.096 39.2793 254.797 39.8552C254.498 40.4201 254.066 40.8631 253.501 41.1843C252.936 41.5055 252.233 41.6661 251.391 41.6661ZM251.391 40.3869C252.078 40.3869 252.626 40.1709 253.036 39.739C253.446 39.2959 253.667 38.6535 253.7 37.8118C253.712 37.6456 253.717 37.4352 253.717 37.1805C253.717 36.9257 253.712 36.7153 253.7 36.5491C253.667 35.7074 253.446 35.0705 253.036 34.6386C252.626 34.1955 252.078 33.974 251.391 33.974C250.704 33.974 250.151 34.1955 249.73 34.6386C249.32 35.0705 249.104 35.7074 249.082 36.5491C249.071 36.7153 249.065 36.9257 249.065 37.1805C249.065 37.4352 249.071 37.6456 249.082 37.8118C249.104 38.6535 249.32 39.2959 249.73 39.739C250.151 40.1709 250.704 40.3869 251.391 40.3869ZM257.376 44.6566C257.265 44.6566 257.171 44.6178 257.093 44.5403C257.027 44.4738 256.994 44.3852 256.994 44.2745V33.243C256.994 33.1323 257.027 33.0437 257.093 32.9772C257.171 32.8997 257.265 32.8609 257.376 32.8609H258.14C258.251 32.8609 258.339 32.8997 258.406 32.9772C258.483 33.0437 258.522 33.1323 258.522 33.243V33.974C258.788 33.6085 259.142 33.3039 259.585 33.0603C260.028 32.8166 260.582 32.6948 261.247 32.6948C261.867 32.6948 262.393 32.8 262.825 33.0104C263.268 33.2209 263.628 33.5088 263.905 33.8743C264.193 34.2398 264.409 34.6552 264.553 35.1204C264.697 35.5855 264.774 36.084 264.785 36.6156C264.796 36.7928 264.802 36.9811 264.802 37.1805C264.802 37.3798 264.796 37.5681 264.785 37.7453C264.774 38.2659 264.697 38.7643 264.553 39.2405C264.409 39.7057 264.193 40.1211 263.905 40.4866C263.628 40.841 263.268 41.129 262.825 41.3505C262.393 41.5609 261.867 41.6661 261.247 41.6661C260.604 41.6661 260.062 41.5498 259.619 41.3172C259.187 41.0736 258.832 40.7745 258.555 40.4201V44.2745C258.555 44.3852 258.522 44.4738 258.456 44.5403C258.389 44.6178 258.295 44.6566 258.173 44.6566H257.376ZM260.898 40.3204C261.474 40.3204 261.922 40.1986 262.243 39.9549C262.576 39.7002 262.814 39.3735 262.958 38.9747C263.102 38.5649 263.185 38.1274 263.207 37.6622C263.218 37.3411 263.218 37.0199 263.207 36.6987C263.185 36.2335 263.102 35.8015 262.958 35.4028C262.814 34.993 262.576 34.6663 262.243 34.4226C261.922 34.1678 261.474 34.0405 260.898 34.0405C260.355 34.0405 259.912 34.1678 259.569 34.4226C259.236 34.6773 258.987 35.0041 258.821 35.4028C258.666 35.7904 258.577 36.1892 258.555 36.599C258.544 36.7762 258.539 36.9866 258.539 37.2303C258.539 37.474 258.544 37.6899 258.555 37.8782C258.566 38.2659 258.655 38.648 258.821 39.0246C258.998 39.4011 259.259 39.7113 259.602 39.9549C259.945 40.1986 260.377 40.3204 260.898 40.3204ZM266.824 41.5C266.713 41.5 266.625 41.4668 266.558 41.4003C266.492 41.3339 266.458 41.2453 266.458 41.1345V33.1766C266.458 33.088 266.492 33.016 266.558 32.9606C266.636 32.8941 266.713 32.8609 266.791 32.8609H267.638C267.815 32.8609 267.954 32.9495 268.053 33.1267L270.878 38.4099L273.719 33.1267C273.818 32.9495 273.957 32.8609 274.134 32.8609H274.965C275.053 32.8609 275.131 32.8941 275.197 32.9606C275.264 33.016 275.297 33.088 275.297 33.1766V41.1345C275.297 41.2453 275.264 41.3339 275.197 41.4003C275.131 41.4668 275.048 41.5 274.948 41.5H274.134C274.023 41.5 273.935 41.4668 273.868 41.4003C273.802 41.3339 273.768 41.2453 273.768 41.1345V34.5057L274.35 34.5721L271.642 39.6891C271.586 39.7999 271.52 39.8996 271.443 39.9882C271.365 40.0768 271.249 40.1211 271.094 40.1211H270.662C270.518 40.1211 270.407 40.0768 270.329 39.9882C270.252 39.8996 270.18 39.7999 270.113 39.6891L267.488 34.8213L268.003 34.7715V41.1345C268.003 41.2453 267.97 41.3339 267.904 41.4003C267.837 41.4668 267.749 41.5 267.638 41.5H266.824ZM279.777 41.6661C279.223 41.6661 278.719 41.5554 278.265 41.3339C277.811 41.1123 277.445 40.8133 277.168 40.4367C276.891 40.0602 276.753 39.6337 276.753 39.1575C276.753 38.3932 277.063 37.7841 277.683 37.33C278.303 36.8759 279.112 36.5768 280.109 36.4328L282.584 36.084V35.6022C282.584 35.0705 282.429 34.6552 282.119 34.3561C281.82 34.0571 281.327 33.9076 280.64 33.9076C280.142 33.9076 279.738 34.0072 279.428 34.2066C279.129 34.406 278.918 34.6607 278.796 34.9708C278.73 35.137 278.614 35.22 278.447 35.22H277.7C277.578 35.22 277.484 35.1868 277.417 35.1204C277.362 35.0428 277.334 34.9542 277.334 34.8545C277.334 34.6884 277.395 34.4835 277.517 34.2398C277.65 33.9962 277.849 33.758 278.115 33.5255C278.381 33.2929 278.719 33.099 279.129 32.944C279.55 32.7778 280.059 32.6948 280.657 32.6948C281.322 32.6948 281.881 32.7834 282.335 32.9606C282.789 33.1267 283.144 33.3538 283.398 33.6417C283.664 33.9297 283.852 34.2565 283.963 34.622C284.085 34.9875 284.146 35.3585 284.146 35.7351V41.1179C284.146 41.2286 284.107 41.3228 284.03 41.4003C283.963 41.4668 283.875 41.5 283.764 41.5H283C282.878 41.5 282.784 41.4668 282.717 41.4003C282.651 41.3228 282.618 41.2286 282.618 41.1179V40.4035C282.474 40.6029 282.28 40.8022 282.036 41.0016C281.792 41.1899 281.488 41.3505 281.122 41.4834C280.757 41.6052 280.308 41.6661 279.777 41.6661ZM280.125 40.4201C280.58 40.4201 280.995 40.326 281.371 40.1377C281.748 39.9383 282.042 39.6337 282.252 39.2239C282.474 38.8141 282.584 38.2991 282.584 37.6789V37.2137L280.657 37.4961C279.871 37.6069 279.278 37.7952 278.879 38.061C278.481 38.3157 278.281 38.6425 278.281 39.0412C278.281 39.3513 278.37 39.6116 278.547 39.822C278.735 40.0214 278.968 40.1709 279.245 40.2706C279.533 40.3703 279.826 40.4201 280.125 40.4201Z" fill="#8F8F8F"/>
<path d="M36.492 4.99662L35.0254 8.27027H39.4251V6.11655H42.9622V9.7348L45.7228 8.27027L47.8795 6.11655L49.8637 9.7348H52.7969V12.9223L54.0909 15.5929L52.7969 16.7128L49.8637 18.0051L49.001 24.9831L51.4166 28.4291L49.001 30.6689L47.8795 33.7703L42.9622 30.6689L37.9585 34.7179L36.492 36.6993H34.1627L32.6961 41.8682L30.9707 42.0405L29.5041 41.8682V40.7483L27.865 39.1115L27.1749 41.8682L28.4689 42.902V44.5389H24.9319L24.4142 45.8311L21.8262 46.6064V49.5355L18.7205 51L17.4264 49.5355H14.8383L11.1288 42.902L7.67798 43.0743L8.79948 39.8007V37.8193L13.8894 35.7517L13.0267 33.7703L13.8894 31.9611L7.67798 27.3953L8.79948 20.7618L2.15673 14.3007V11.8024V9.7348V8.27027L0 6.11655L2.15673 4.99662V3.87669L4.91736 1.89527L6.2114 0.775338H11.9052L13.0267 0H14.8383L18.7205 1.89527L24.9319 0.775338V1.89527L28.4689 0L31.7471 0.775338L35.0254 1.89527L36.492 4.99662Z" fill="#9AC731"/>
<path d="M36.3681 48.6489L35.552 50.0802L34.9734 48.5375L27.1608 27.7083L26.8522 26.8854L26.5512 27.1864L26.0379 27.6997V28.4171V29.9493V30.6693L26.5521 31.1834L27.6354 32.2667L28.1818 32.8131L27.6354 33.3595L25.6577 35.3372L25.1112 35.8837L24.5648 35.3372L23.4816 34.2539L22.9352 33.7075L23.4816 33.1611L25.4593 31.1834L25.9206 30.7221H25.2652H22.4679H21.6952V29.9493V28.4171V27.6444H22.4679H25.2652H25.9163L25.4584 27.1864L23.4808 25.2088L22.9344 24.6624L23.4808 24.116L24.564 23.0327L25.1105 22.4863L25.6569 23.0327L27.6345 25.0103L28.0918 25.4677V24.8178V22.0205V21.2478H28.8645H30.3968H31.1695V22.0205V24.8178V25.4714L31.6315 25.0094L33.6092 23.0318L34.1556 22.4854L34.702 23.0318L35.7853 24.1151L36.3316 24.6615L35.7853 25.2079L33.8076 27.1856L33.2612 27.732L32.7148 27.1856L31.6315 26.1022L31.1198 25.5905H30.3968H28.8645H28.1472L27.6345 26.1031L27.3329 26.4048L28.1557 26.7134L48.9849 34.5259L50.5277 35.1046L49.0963 35.9207L44.266 38.6749L48.7819 43.1907L49.3283 43.7371L48.7818 44.2835L44.7309 48.3344L44.1845 48.8808L43.6381 48.3344L39.1223 43.8186L36.3681 48.6489Z" fill="white" stroke="#9AC731" stroke-width="1.54545"/>
</svg>
