<svg width="1361" height="1283" viewBox="0 0 1361 1283" fill="none" xmlns="http://www.w3.org/2000/svg">
<path d="M918.187 125.699L881.285 208.054H991.989V153.873H1080.99V244.897L1150.45 208.054L1204.71 153.873L1254.64 244.897H1328.44V325.084L1361 392.269L1328.44 420.443L1254.64 452.951L1232.93 628.497L1293.71 715.186L1232.93 771.534L1204.71 849.554L1080.99 771.534L955.088 873.394L918.187 923.24H859.579L822.678 1053.27L779.265 1057.61L742.364 1053.27V1025.1L701.121 983.922L683.756 1053.27L716.316 1079.28V1120.46H627.319L614.295 1152.97L549.175 1172.47V1246.16L471.032 1283L438.472 1246.16H373.352L280.014 1079.28L193.188 1083.61L221.407 1001.26V951.414L349.475 899.4L327.769 849.554L349.475 804.042L193.188 689.179L221.407 522.302L54.2663 359.76V296.91V244.897V208.054L0 153.873L54.2663 125.699V97.5253L123.727 47.6791L156.287 19.5051H299.55L327.769 0H373.352L471.032 47.6791L627.319 19.5051V47.6791L716.316 0L798.801 19.5051L881.285 47.6791L918.187 125.699Z" fill="black" fill-opacity="0.03"/>
</svg>
