<svg width="164" height="27" viewBox="0 0 164 27" fill="none" xmlns="http://www.w3.org/2000/svg">
<path d="M13.5065 1.42067C13.1204 1.41827 12.7666 1.63498 12.5941 1.97942L9.11628 8.91578L0.858002 10.1831C0.481068 10.2412 0.168837 10.5056 0.0502317 10.8671C-0.0683735 11.2286 0.02677 11.6259 0.296376 11.8949L6.00888 17.5915L4.73665 25.836C4.67861 26.2121 4.83756 26.5888 5.1478 26.8104C5.45803 27.0321 5.86686 27.0609 6.20532 26.8851L13.4999 23.0896L20.7944 26.8851C21.1329 27.0609 21.5417 27.0321 21.8519 26.8104C22.1622 26.5888 22.3211 26.2121 22.2631 25.836L20.9909 17.5915L26.7034 11.8949C26.973 11.6259 27.0681 11.2286 26.9495 10.8671C26.8309 10.5056 26.5187 10.2412 26.1417 10.1831L17.8834 8.91578L14.4056 1.97942C14.2353 1.63921 13.8878 1.42325 13.5065 1.42067Z" fill="#FDAD35"/>
<path d="M47.61 1.42092C47.2239 1.41851 46.8701 1.63522 46.6977 1.97967L43.2198 8.91602L34.9615 10.1834C34.5846 10.2415 34.2724 10.5058 34.1537 10.8673C34.0351 11.2288 34.1303 11.6261 34.3999 11.8951L40.1124 17.5917L38.8402 25.8362C38.7821 26.2123 38.9411 26.5891 39.2513 26.8107C39.5615 27.0323 39.9704 27.0612 40.3088 26.8853L47.6034 23.0898L54.8979 26.8853C55.2364 27.0612 55.6452 27.0323 55.9554 26.8107C56.2657 26.5891 56.4246 26.2123 56.3666 25.8362L55.0944 17.5917L60.8069 11.8951C61.0765 11.6261 61.1716 11.2288 61.053 10.8673C60.9344 10.5058 60.6222 10.2415 60.2452 10.1834L51.987 8.91602L48.5091 1.97967C48.3388 1.63946 47.9913 1.4235 47.61 1.42092Z" fill="#FDAD35"/>
<path d="M81.7174 1.97902e-05C81.3313 -0.00238379 80.9775 0.214321 80.8051 0.558767L77.3272 7.49512L69.0689 8.76249C68.692 8.82057 68.3798 9.08494 68.2612 9.44643C68.1426 9.80791 68.2377 10.2052 68.5073 10.4742L74.2198 16.1708L72.9476 24.4153C72.8895 24.7914 73.0485 25.1682 73.3587 25.3898C73.669 25.6114 74.0778 25.6403 74.4163 25.4644L81.7108 21.6689L89.0054 25.4644C89.3438 25.6403 89.7526 25.6114 90.0629 25.3898C90.3731 25.1682 90.5321 24.7914 90.474 24.4153L89.2018 16.1708L94.9143 10.4742C95.1839 10.2052 95.279 9.80791 95.1604 9.44643C95.0418 9.08494 94.7296 8.82057 94.3527 8.76249L86.0944 7.49512L82.6165 0.558767C82.4462 0.218557 82.0987 0.00259725 81.7174 1.97902e-05Z" fill="#FDAD35"/>
<path d="M115.823 1.97902e-05C115.437 -0.00238379 115.083 0.214321 114.911 0.558767L111.433 7.49512L103.174 8.76249C102.797 8.82057 102.485 9.08494 102.367 9.44643C102.248 9.80791 102.343 10.2052 102.613 10.4742L108.325 16.1708L107.053 24.4153C106.995 24.7914 107.154 25.1682 107.464 25.3898C107.774 25.6114 108.183 25.6403 108.522 25.4644L115.816 21.6689L123.111 25.4644C123.449 25.6403 123.858 25.6114 124.168 25.3898C124.479 25.1682 124.638 24.7914 124.579 24.4153L123.307 16.1708L129.02 10.4742C129.289 10.2052 129.385 9.80791 129.266 9.44643C129.147 9.08494 128.835 8.82057 128.458 8.76249L120.2 7.49512L116.722 0.558767C116.552 0.218557 116.204 0.00259725 115.823 1.97902e-05Z" fill="#FDAD35"/>
<path d="M149.926 1.97902e-05C149.54 -0.00238379 149.186 0.214321 149.014 0.558767L145.536 7.49512L137.278 8.76249C136.901 8.82057 136.589 9.08494 136.47 9.44643C136.351 9.80791 136.447 10.2052 136.716 10.4742L142.429 16.1708L141.156 24.4153C141.098 24.7914 141.257 25.1682 141.568 25.3898C141.878 25.6114 142.287 25.6403 142.625 25.4644L149.92 21.6689L157.214 25.4644C157.553 25.6403 157.961 25.6114 158.272 25.3898C158.582 25.1682 158.741 24.7914 158.683 24.4153L157.411 16.1708L163.123 10.4742C163.393 10.2052 163.488 9.80791 163.369 9.44643C163.251 9.08494 162.938 8.82057 162.562 8.76249L154.303 7.49512L150.825 0.558767C150.655 0.218557 150.308 0.00259725 149.926 1.97902e-05Z" fill="#D2D4DA"/>
</svg>
